<?xml version="1.0" encoding="utf-8" ?>
<svg xmlns="http://www.w3.org/2000/svg" xmlns:xlink="http://www.w3.org/1999/xlink" width="33" height="41">
	<defs>
		<clipPath id="clip_0">
			<rect x="0.053222656" y="0.36720276" width="31.890657" height="39.26841" clip-rule="evenodd"/>
		</clipPath>
	</defs>
	<g clip-path="url(#clip_0)">
		<path fill="rgb(255,255,255)" stroke="none" transform="matrix(0.97 0 0 0.97 0.0532227 0.367203)" d="M28.0626 14.336L32.88 14.336L32.88 38.0327C32.88 39.3835 31.7799 40.48 30.4275 40.48L2.45164 40.48C1.09758 40.48 0 39.3835 0 38.0327L0 14.336L4.81736 14.336L4.81736 11.6009C4.81736 5.2037 10.0303 0 16.4402 0C22.8472 0 28.0626 5.2037 28.0626 11.6009L28.0626 14.336ZM7.01755 15.6274L7.01755 11.6009C7.01755 6.4152 11.2444 2.19585 16.4402 2.19585C21.6356 2.19585 25.8629 6.4152 25.8629 11.6009L25.8629 15.6274L7.01755 15.6274ZM8.05771 35.7992L13.8754 29.9902C15.1796 28.7113 15.8405 27.1413 15.8405 25.3278C15.8405 23.4867 15.1775 21.938 13.8708 20.7211C12.6739 19.5903 11.2163 19.018 9.54043 19.018C7.7589 19.018 6.20704 19.6635 4.93428 20.9336C3.6586 22.1844 3.01195 23.7457 3.01195 25.5759C3.01195 27.4019 3.6674 28.9385 4.96152 30.1408C6.11233 31.2151 7.47099 31.7844 9.00232 31.8372L5.03361 35.7992L8.05771 35.7992ZM22.0853 35.7992L27.9021 29.9902C29.2034 28.7113 29.866 27.1413 29.866 25.3278C29.866 23.4867 29.203 21.938 27.8975 20.7211C26.6989 19.5903 25.2439 19.018 23.568 19.018C21.7831 19.018 20.2333 19.6635 18.9606 20.9336C17.6849 22.1844 17.037 23.7457 17.037 25.5759C17.037 27.4019 17.6937 28.9385 18.987 30.1408C20.1378 31.2151 21.4956 31.7844 23.0261 31.8372L19.0595 35.7992L22.0853 35.7992Z" fill-rule="evenodd"/>
	</g>
</svg>
