<?xml version="1.0" encoding="UTF-8"?>
<svg width="16px" height="16px" viewBox="0 0 16 16" version="1.1" xmlns="http://www.w3.org/2000/svg" xmlns:xlink="http://www.w3.org/1999/xlink">
    <!-- Generator: Sketch 46 (44423) - http://www.bohemiancoding.com/sketch -->
    <title>icon-download@1.5x</title>
    <desc>Created with Sketch.</desc>
    <defs></defs>
    <g id="Symbols" stroke="none" stroke-width="1" fill="none" fill-rule="evenodd">
        <g id="icon-download" fill-rule="nonzero" fill="#53D98B">
            <path d="M7.57193817,11.0439952 L3.86206897,7.33412604 C3.74791914,7.20095125 3.67181926,7.04875149 3.67181926,6.85850178 C3.67181926,6.66825208 3.72889417,6.51605232 3.86206897,6.38287753 C4.10939358,6.13555291 4.5469679,6.13555291 4.79429251,6.38287753 L7.32461356,8.91319857 L7.32461356,0.903686088 C7.32461356,0.542211653 7.62901308,0.237812128 7.99048751,0.237812128 C8.35196195,0.237812128 8.65636147,0.542211653 8.65636147,0.903686088 L8.65636147,8.91319857 L11.1676576,6.34482759 C11.4149822,6.09750297 11.8525565,6.09750297 12.0998811,6.34482759 C12.2140309,6.47800238 12.2901308,6.63020214 12.2901308,6.82045184 C12.2901308,7.01070155 12.2330559,7.16290131 12.0998811,7.2960761 L8.42806183,10.9678954 L8.37098692,11.0249703 C8.33293698,11.0630202 8.27586207,11.1010702 8.21878716,11.1200951 C8.18073722,11.1391201 8.12366231,11.1581451 8.08561237,11.1581451 L8.08561237,11.17717 L7.95243757,11.17717 L7.9334126,11.17717 C7.85731272,11.1581451 7.80023781,11.1391201 7.72413793,11.1200951 C7.66706302,11.1010702 7.62901308,11.0820452 7.57193817,11.0439952 Z M15.3151011,8.93222354 C15.6956005,8.93222354 15.980975,9.23662307 16,9.5980975 L16,12.2425684 C16,14.1831153 14.4209275,15.7621879 12.4803805,15.7621879 L3.5196195,15.7621879 C1.57907253,15.7621879 0,14.1831153 0,12.2425684 L0,9.5980975 C0,9.23662307 0.304399524,8.93222354 0.66587396,8.93222354 C1.02734839,8.93222354 1.33174792,9.23662307 1.33174792,9.5980975 L1.33174792,12.2425684 C1.33174792,13.4411415 2.32104637,14.43044 3.5196195,14.43044 L12.4613555,14.43044 C13.6599287,14.43044 14.6492271,13.4411415 14.6492271,12.2425684 L14.6492271,9.5980975 C14.6492271,9.23662307 14.9536266,8.93222354 15.3151011,8.93222354 Z" id="Combined-Shape"></path>
        </g>
    </g>
</svg>