<?xml version="1.0" encoding="UTF-8"?>
<svg width="18px" height="18px" viewBox="0 0 18 18" version="1.1" xmlns="http://www.w3.org/2000/svg" xmlns:xlink="http://www.w3.org/1999/xlink">
    <!-- Generator: Sketch 45.2 (43514) - http://www.bohemiancoding.com/sketch -->
    <title>icon-search</title>
    <desc>Created with Sketch.</desc>
    <defs></defs>
    <g id="Symbols" stroke="none" stroke-width="1" fill="none" fill-rule="evenodd">
        <g id="icon-search" fill="#393C49">
            <path d="M17.7603764,16.6033636 L13.1170164,11.9599773 C14.1248061,10.7001818 14.7271891,9.10227273 14.7271891,7.36363636 C14.7271891,3.29686364 11.4305487,0 7.36359453,0 C3.2968449,0 0,3.29686364 0,7.36363636 C0,11.4304091 3.2968449,14.7272727 7.36359453,14.7272727 C9.10222101,14.7272727 10.700121,14.1246818 11.9599093,13.1168864 L16.6032693,17.7602727 C16.7630184,17.9200227 16.9724717,18 17.1817206,18 C17.3911739,18 17.6006273,17.9200227 17.7603764,17.7602727 C18.0798745,17.4409773 18.0798745,16.9226591 17.7603764,16.6033636 L17.7603764,16.6033636 Z M7.36359453,13.0909091 C4.20052159,13.0909091 1.63635434,10.5267273 1.63635434,7.36363636 C1.63635434,4.20054545 4.20052159,1.63636364 7.36359453,1.63636364 C10.526872,1.63636364 13.0908347,4.20054545 13.0908347,7.36363636 C13.0908347,10.5267273 10.526872,13.0909091 7.36359453,13.0909091 L7.36359453,13.0909091 Z" id="Shape"></path>
        </g>
    </g>
</svg>