<?xml version="1.0" encoding="UTF-8"?>
<svg width="7px" height="5px" viewBox="0 0 7 5" version="1.1" xmlns="http://www.w3.org/2000/svg" xmlns:xlink="http://www.w3.org/1999/xlink">
    <!-- Generator: Sketch 45.2 (43514) - http://www.bohemiancoding.com/sketch -->
    <title>icon-arrow-up</title>
    <desc>Created with Sketch.</desc>
    <defs></defs>
    <g id="Symbols" stroke="none" stroke-width="1" fill="none" fill-rule="evenodd">
        <g id="icon-arrow-up" fill="#53d98b">
            <path d="M3.80710581,3.97723228 C3.81148053,3.97291206 3.81323042,3.96715177 3.81760515,3.96283156 L6.87203925,1.1856527 C7.04265358,1.02940489 7.04265358,0.775952213 6.87203925,0.6197044 C6.87028936,0.618264328 6.86853947,0.617544292 6.86678958,0.616824256 C6.7880445,0.541220476 6.67780139,0.494418136 6.55530904,0.494418136 L0.445565902,0.494418136 C0.320448722,0.494418136 0.209330667,0.54410062 0.129710643,0.621144472 L0.127960752,0.6197044 C-0.0426535842,0.775952213 -0.0426535842,1.02940489 0.127960752,1.1856527 L3.18939441,3.97723228 C3.36000875,4.13348009 3.63649147,4.13348009 3.80710581,3.97723228 L3.80710581,3.97723228 Z" id="Shape" transform="translate(3.500000, 2.294418) rotate(-180.000000) translate(-3.500000, -2.294418) "></path>
        </g>
    </g>
</svg>