<?xml version="1.0" encoding="UTF-8"?>
<svg width="20px" height="18px" viewBox="0 0 20 18" version="1.1" xmlns="http://www.w3.org/2000/svg" xmlns:xlink="http://www.w3.org/1999/xlink">
    <!-- Generator: Sketch 46.2 (44496) - http://www.bohemiancoding.com/sketch -->
    <title>icon-directory</title>
    <desc>Created with Sketch.</desc>
    <defs></defs>
    <g id="Symbols" stroke="none" stroke-width="1" fill="none" fill-rule="evenodd">
        <g id="icon-directory" fill-rule="nonzero" fill="#FFFFFF">
            <g id="Shape">
                <path d="M9.99833333,5.13833333 C10.0954167,5.13833333 10.1933333,5.11583333 10.285,5.06875 C10.5008333,4.95708333 10.7266667,4.86333333 10.95625,4.79041667 C11.2854167,4.68541667 11.4670833,4.33375 11.3620833,4.005 C11.2575,3.67583333 10.9066667,3.49458333 10.5770833,3.59916667 C10.2804167,3.69375 9.98958333,3.81416667 9.71125,3.95791667 C9.40416667,4.11666667 9.28416667,4.49333333 9.4425,4.8 C9.55375,5.015 9.77208333,5.13833333 9.99833333,5.13833333"></path>
                <path d="M7.79791667,6.67333333 C7.90541667,6.74583333 8.0275,6.78083333 8.14833333,6.78083333 C8.34833333,6.78083333 8.545,6.685 8.66583333,6.50666667 C8.80208333,6.30625 8.95625,6.115 9.12416667,5.93875 C9.36208333,5.68833333 9.35166667,5.29291667 9.10208333,5.055 C8.85166667,4.81666667 8.45625,4.82708333 8.21833333,5.07708333 C8.00333333,5.30291667 7.80583333,5.5475 7.63125,5.80541667 C7.43791667,6.09083333 7.51208333,6.47958333 7.79791667,6.67333333"></path>
                <path d="M12.4079167,4.58333333 L13.24125,4.58333333 C13.58625,4.58333333 13.86625,4.30333333 13.86625,3.95833333 C13.86625,3.61333333 13.58625,3.33333333 13.24125,3.33333333 L12.4079167,3.33333333 C12.0629167,3.33333333 11.7829167,3.61333333 11.7829167,3.95833333 C11.7829167,4.30333333 12.0629167,4.58333333 12.4079167,4.58333333"></path>
                <path d="M14.9079167,4.58333333 L15.74125,4.58333333 C16.08625,4.58333333 16.36625,4.30333333 16.36625,3.95833333 C16.36625,3.61333333 16.08625,3.33333333 15.74125,3.33333333 L14.9079167,3.33333333 C14.5629167,3.33333333 14.2829167,3.61333333 14.2829167,3.95833333 C14.2829167,4.30333333 14.5629167,4.58333333 14.9079167,4.58333333"></path>
                <path d="M3.72291667,13.0945833 C3.495,13.1733333 3.25791667,13.23375 3.01875,13.2733333 C2.67833333,13.33 2.44791667,13.6520833 2.50458333,13.9920833 C2.555,14.2979167 2.82,14.515 3.12,14.515 C3.15416667,14.515 3.18833333,14.5120833 3.22291667,14.50625 C3.53166667,14.4554167 3.8375,14.3779167 4.13166667,14.27625 C4.45791667,14.1629167 4.63083333,13.8075 4.51833333,13.4808333 C4.405,13.1545833 4.04916667,12.9820833 3.72291667,13.0945833"></path>
                <path d="M5.53041667,11.9020833 C5.36708333,12.08125 5.18708333,12.2483333 4.99625,12.3991667 C4.725,12.6125 4.67791667,13.0058333 4.89166667,13.2766667 C5.015,13.4333333 5.19833333,13.515 5.38333333,13.515 C5.51875,13.515 5.655,13.47125 5.76958333,13.38125 C6.01458333,13.1879167 6.245,12.97375 6.45458333,12.74375 C6.68708333,12.48875 6.66833333,12.0933333 6.41333333,11.8608333 C6.15875,11.6291667 5.76375,11.6466667 5.53041667,11.9020833"></path>
                <path d="M1.45833333,13.3333333 L0.625,13.3333333 C0.28,13.3333333 0,13.6133333 0,13.9583333 C0,14.3033333 0.28,14.5833333 0.625,14.5833333 L1.45833333,14.5833333 C1.80333333,14.5833333 2.08333333,14.3033333 2.08333333,13.9583333 C2.08333333,13.6133333 1.80333333,13.3333333 1.45833333,13.3333333"></path>
                <path d="M17.86625,3.33333333 L17.4079167,3.33333333 C17.0629167,3.33333333 16.7829167,3.61333333 16.7829167,3.95833333 C16.7829167,4.30333333 17.0629167,4.58333333 17.4079167,4.58333333 L17.86625,4.58333333 L15.6,6.84958333 C15.3558333,7.09375 15.3558333,7.48916667 15.6,7.73333333 C15.7216667,7.85541667 15.8816667,7.91666667 16.0416667,7.91666667 C16.2016667,7.91666667 16.3616667,7.85541667 16.4833333,7.73333333 L19.8166667,4.40041667 C20.06125,4.15625 20.06125,3.76041667 19.8166667,3.51625 L16.4833333,0.182916667 C16.2395833,-0.06125 15.84375,-0.06125 15.6,0.182916667 C15.3558333,0.427083333 15.3558333,0.822916667 15.6,1.06666667 L17.86625,3.33333333"></path>
                <path d="M15.6,10.1829167 C15.3558333,10.4270833 15.3558333,10.8229167 15.6,11.0666667 L17.86625,13.3333333 L12.2916667,13.3333333 C9.87916667,13.3333333 7.91666667,11.3708333 7.91666667,8.95833333 C7.91666667,5.85666667 5.39333333,3.33333333 2.29166667,3.33333333 L0.625,3.33333333 C0.28,3.33333333 0,3.61333333 0,3.95833333 C0,4.30333333 0.28,4.58333333 0.625,4.58333333 L2.29166667,4.58333333 C4.70416667,4.58333333 6.66666667,6.54583333 6.66666667,8.95833333 C6.66666667,9.20666667 6.68833333,9.44958333 6.71958333,9.68916667 C6.63666667,9.76916667 6.57416667,9.87125 6.545,9.99125 C6.48791667,10.2270833 6.41083333,10.4591667 6.31541667,10.6816667 C6.17916667,10.99875 6.32625,11.36625 6.64291667,11.5020833 C6.72375,11.5366667 6.80708333,11.5529167 6.88916667,11.5529167 C7.01916667,11.5529167 7.14416667,11.5095833 7.24916667,11.4354167 C8.11416667,13.1895833 9.86333333,14.4270833 11.9141667,14.5641667 C11.9591667,14.5754167 12.0054167,14.5833333 12.05375,14.5833333 L17.86625,14.5833333 L15.6,16.8495833 C15.3558333,17.09375 15.3558333,17.4891667 15.6,17.7333333 C15.7216667,17.8554167 15.8816667,17.9166667 16.0416667,17.9166667 C16.2016667,17.9166667 16.3616667,17.8554167 16.4833333,17.7333333 L19.8166667,14.4 C20.06125,14.1558333 20.06125,13.7604167 19.8166667,13.51625 L16.4833333,10.1829167 C16.2395833,9.93875 15.84375,9.93875 15.6,10.1829167 Z"></path>
            </g>
        </g>
    </g>
</svg>