<?xml version="1.0" encoding="UTF-8"?>
<svg width="20px" height="20px" viewBox="0 0 20 20" version="1.1" xmlns="http://www.w3.org/2000/svg" xmlns:xlink="http://www.w3.org/1999/xlink">
    <!-- Generator: Sketch 46 (44423) - http://www.bohemiancoding.com/sketch -->
    <title>icon-settings@1.5x</title>
    <desc>Created with Sketch.</desc>
    <defs></defs>
    <g id="Symbols" stroke="none" stroke-width="1" fill="none" fill-rule="evenodd">
        <g id="btn-filter" transform="translate(-10.000000, -11.000000)" fill="#393C49">
            <g id="Group-5">
                <g id="icon-settings" transform="translate(10.000000, 11.000000)">
                    <g id="Group-5" transform="translate(10.000000, 10.000000) rotate(-90.000000) translate(-10.000000, -10.000000) ">
                        <path d="M0.641666667,3.20833333 L2.65008333,3.20833333 C2.94532583,4.33794922 3.9657717,5.1259644 5.13333333,5.1259644 C6.30089497,5.1259644 7.32134084,4.33794922 7.61658333,3.20833333 L18.6083333,3.20833333 C18.962716,3.20833333 19.25,2.92104938 19.25,2.56666667 C19.25,2.21228395 18.962716,1.925 18.6083333,1.925 L7.61658333,1.925 C7.32134084,0.795384117 6.30089497,0.00736893735 5.13333333,0.00736893735 C3.9657717,0.00736893735 2.94532583,0.795384117 2.65008333,1.925 L0.641666667,1.925 C0.28728396,1.92500001 1.91231569e-08,2.21228396 1.91231569e-08,2.56666667 C1.91231568e-08,2.92104937 0.28728396,3.20833332 0.641666667,3.20833333 L0.641666667,3.20833333 Z M5.13333333,1.28333333 C5.71429925,1.28273743 6.22320167,1.67250678 6.37399853,2.23356119 C6.52479539,2.7946156 6.27986894,3.38699458 5.77688656,3.67773584 C5.27390419,3.96847709 4.63833976,3.88505238 4.22742909,3.47435277 C3.81651843,3.06365316 3.7327672,2.42813168 4.02325,1.925 C4.2522602,1.52834215 4.6753127,1.28380313 5.13333333,1.28333333 L5.13333333,1.28333333 Z" id="Shape" fill-rule="nonzero"></path>
                        <path d="M18.6083333,9.05833333 L16.5999167,9.05833333 C16.3046742,7.92871745 15.2842283,7.14070227 14.1166667,7.14070227 C12.949105,7.14070227 11.9286592,7.92871745 11.6334167,9.05833333 L0.641666667,9.05833333 C0.287283952,9.05833333 4.33993657e-17,9.34561729 0,9.7 C-4.33993657e-17,10.0543827 0.287283952,10.3416667 0.641666667,10.3416667 L11.6334167,10.3416667 C11.9286592,11.4712825 12.949105,12.2592977 14.1166667,12.2592977 C15.2842283,12.2592977 16.3046742,11.4712825 16.5999167,10.3416667 L18.6083333,10.3416667 C18.962716,10.3416667 19.25,10.0543827 19.25,9.7 C19.25,9.34561729 18.962716,9.05833333 18.6083333,9.05833333 L18.6083333,9.05833333 Z M14.1166667,10.9833333 C13.5357008,10.9839292 13.0267983,10.5941599 12.8760015,10.0331055 C12.7252046,9.47205106 12.9701311,8.87967209 13.4731134,8.58893083 C13.9760958,8.29818957 14.6116602,8.38161428 15.0225709,8.79231389 C15.4334816,9.2030135 15.5172328,9.83853499 15.22675,10.3416667 C14.9977398,10.7383245 14.5746873,10.9828635 14.1166667,10.9833333 Z" id="Shape" fill-rule="nonzero"></path>
                        <path d="M18.6083333,16.1916667 L10.18325,16.1916667 C9.8880075,15.0620508 8.86756164,14.2740356 7.7,14.2740356 C6.53243836,14.2740356 5.5119925,15.0620508 5.21675,16.1916667 L0.641666667,16.1916667 C0.287283952,16.1916667 4.33993657e-17,16.4789506 0,16.8333333 C-4.33993657e-17,17.187716 0.287283952,17.475 0.641666667,17.475 L5.21675,17.475 C5.5119925,18.6046159 6.53243836,19.3926311 7.7,19.3926311 C8.86756164,19.3926311 9.8880075,18.6046159 10.18325,17.475 L18.6083333,17.475 C18.962716,17.475 19.25,17.187716 19.25,16.8333333 C19.25,16.4789506 18.962716,16.1916667 18.6083333,16.1916667 Z M7.7,18.1166667 C7.11903409,18.1172626 6.61013166,17.7274932 6.4593348,17.1664388 C6.30853794,16.6053844 6.5534644,16.0130054 7.05644677,15.7222642 C7.55942914,15.4315229 8.19499357,15.5149476 8.60590424,15.9256472 C9.01681491,16.3363468 9.10056614,16.9718683 8.81008333,17.475 C8.58107314,17.8716579 8.15802063,18.1161969 7.7,18.1166667 Z" id="Shape" fill-rule="nonzero"></path>
                    </g>
                </g>
            </g>
        </g>
    </g>
</svg>