<?xml version="1.0" encoding="UTF-8"?>
<svg width="42px" height="50px" viewBox="0 0 42 50" version="1.1" xmlns="http://www.w3.org/2000/svg" xmlns:xlink="http://www.w3.org/1999/xlink">
    <!-- Generator: Sketch 45.2 (43514) - http://www.bohemiancoding.com/sketch -->
    <title>icon-pdf</title>
    <desc>Created with Sketch.</desc>
    <defs>
        <path d="M2,4.50323817 C2,2.0161684 4.01429647,0 6.48738197,0 L37.3053641,0 C39.7836768,0 41.7927461,2.02198625 41.7927461,4.50323817 L41.7927461,45.4967618 C41.7927461,47.9838316 39.7784496,50 37.3053641,50 L6.48738197,50 C4.00906934,50 2,47.9780138 2,45.4967618 L2,4.50323817 Z M41.7927461,12.5 L29.357513,1.49925589e-15 L37.3033416,5.41265784e-16 C39.7809903,2.4254766e-16 41.7927461,2.01253681 41.7927461,4.49512678 L41.7927461,12.5 Z" id="path-1"></path>
        <path d="M41.2521589,12.7083333 L41.2521589,4.70346011 C41.2521589,2.22087014 39.2404031,0.208333333 36.7627543,0.208333333 L28.8169257,0.208333333" id="path-2"></path>
    </defs>
    <g id="Symbols" stroke="none" stroke-width="1" fill="none" fill-rule="evenodd">
        <g id="icon-pdf">
            <g id="pdf_225">
                <g>
                    <g id="mimetype_pdf_1c">
                        <g id="Rectangle-36">
                            <use fill="#FFFFFF" fill-rule="evenodd" xlink:href="#path-1"></use>
                            <path stroke="#53D98B" stroke-width="1.40625" d="M2.703125,4.50323817 L2.703125,45.4967618 C2.703125,47.5923917 4.4000923,49.296875 6.48738197,49.296875 L37.3053641,49.296875 C39.3915005,49.296875 41.0896211,47.5941241 41.0896211,45.4967618 L41.0896211,4.50323817 C41.0896211,2.40760825 39.3926538,0.703125 37.3053641,0.703125 L6.48738197,0.703125 C4.40124563,0.703125 2.703125,2.40587589 2.703125,4.50323817 Z M41.0896211,10.7962511 L41.0896211,4.49512678 C41.0896211,2.40132043 39.3931227,0.703125 37.3033416,0.703125 L31.048791,0.703125 L41.0896211,10.7962511 Z"></path>
                        </g>
                        <g id="Path-50-Copy" transform="translate(35.034542, 6.458333) scale(-1, -1) translate(-35.034542, -6.458333) ">
                            <use fill-opacity="0.449303668" fill="#53D98B" fill-rule="evenodd" xlink:href="#path-2"></use>
                            <path stroke="#53D98B" stroke-width="1.40625" d="M40.5490339,11.0045844 L40.5490339,4.70346011 C40.5490339,2.60965376 38.8525355,0.911458333 36.7627543,0.911458333 L30.5082038,0.911458333 L40.5490339,11.0045844 Z"></path>
                        </g>
                        <g id="Rectangle-37-+-pdf" transform="translate(0.000000, 18.410042)">
                            <rect id="Rectangle-37" fill="#53D98B" x="0" y="0" width="39.375" height="13.3891213" rx="3.76569038"></rect>
                            <path d="M7.03071827,9.38284519 L7.03071827,4.47238494 L8.82318689,4.47238494 C9.89264296,4.47238494 10.743689,4.86401674 10.743689,6.0539749 C10.743689,7.20627615 9.86251743,7.71841004 8.82318689,7.71841004 L8.14536262,7.71841004 L8.14536262,9.38284519 L7.03071827,9.38284519 Z M8.14536262,6.83723849 L8.75540446,6.83723849 C9.3654463,6.83723849 9.65917015,6.56610879 9.65917015,6.0539749 C9.65917015,5.541841 9.34285216,5.35355649 8.75540446,5.35355649 L8.14536262,5.35355649 L8.14536262,6.83723849 Z M11.5872036,9.38284519 L11.5872036,4.47238494 L12.9729777,4.47238494 C14.4792538,4.47238494 15.4432706,5.21799163 15.4432706,6.90502092 C15.4432706,8.59205021 14.4792538,9.38284519 13.0407601,9.38284519 L11.5872036,9.38284519 Z M12.701848,8.48661088 L12.9127266,8.48661088 C13.7411785,8.48661088 14.3060321,8.07991632 14.3060321,6.90502092 C14.3060321,5.73012552 13.7411785,5.36861925 12.9127266,5.36861925 L12.701848,5.36861925 L12.701848,8.48661088 Z M16.362099,9.38284519 L17.4767434,9.38284519 L17.4767434,7.47740586 L19.171304,7.47740586 L19.171304,6.54351464 L17.4767434,6.54351464 L17.4767434,5.40627615 L19.4650279,5.40627615 L19.4650279,4.47238494 L16.362099,4.47238494 L16.362099,9.38284519 Z" id="PDF" fill="#FFFFFF"></path>
                        </g>
                    </g>
                </g>
            </g>
        </g>
    </g>
</svg>