<?xml version="1.0" encoding="UTF-8"?>
<svg width="20px" height="11px" viewBox="0 0 20 11" version="1.1" xmlns="http://www.w3.org/2000/svg" xmlns:xlink="http://www.w3.org/1999/xlink">
    <!-- Generator: Sketch 45.2 (43514) - http://www.bohemiancoding.com/sketch -->
    <title>icon-dashboard-a</title>
    <desc>Created with Sketch.</desc>
    <defs></defs>
    <g id="Symbols" stroke="none" stroke-width="1" fill="none" fill-rule="evenodd">
        <g id="icon-dashboard-a" stroke-width="0.2" stroke="#53D98B" fill-rule="nonzero" fill="#FFFFFF">
            <g id="icon-dashboard">
                <path d="M17.2203167,0.561266968 C17.4239819,0.756063348 17.461991,1.06773756 17.3112217,1.30687783 C17.1962443,1.48963801 16.8772851,1.99420814 16.4452489,2.67298643 C18.3881448,4.50723982 19.4856561,7.0300905 19.4856561,9.74266968 C19.4856561,10.0711312 19.2195928,10.3365611 18.8917647,10.3365611 C18.5636199,10.3365611 18.2978733,10.0711312 18.2978733,9.74266968 C18.2978733,7.43868778 17.3954751,5.2921267 15.7924434,3.69542986 C14.249276,6.10552036 12.0520362,9.48642534 11.548733,9.98941176 C11.0872398,10.450905 10.4730769,10.7058824 9.81963801,10.7058824 C9.16588235,10.7058824 8.55171946,10.450905 8.0899095,9.98941176 C7.62778281,9.52728507 7.37312217,8.91312217 7.37312217,8.25968326 C7.37312217,7.60561086 7.62778281,6.99208145 8.0899095,6.52995475 C8.829819,5.79004525 15.6917195,1.04081448 16.4718552,0.501402715 C16.7037104,0.341131222 17.0169683,0.365837104 17.2203167,0.561266968 Z M12.3608597,0.355701357 C12.6769683,0.443755656 12.861629,0.77158371 12.7735747,1.08674208 C12.6855204,1.40285068 12.3567421,1.58782805 12.0422172,1.5000905 C11.2975566,1.29294118 10.5240724,1.18778281 9.74266968,1.18778281 C5.02542986,1.18778281 1.18778281,5.02511312 1.18778281,9.74235294 C1.18778281,10.070181 0.922036199,10.3362443 0.593891403,10.3362443 C0.265746606,10.3362443 0,10.070181 0,9.74235294 C0,4.3700905 4.37040724,0 9.74266968,0 C10.6317647,0 11.5126244,0.119411765 12.3608597,0.355701357 Z M10.3365611,2.87475113 C10.3365611,3.20321267 10.0704977,3.46864253 9.74266968,3.46864253 C9.41452489,3.46864253 9.14877828,3.20321267 9.14877828,2.87475113 L9.14877828,2.32425339 C9.14877828,1.99642534 9.41452489,1.73036199 9.74266968,1.73036199 C10.0704977,1.73036199 10.3365611,1.99642534 10.3365611,2.32425339 L10.3365611,2.87475113 Z M3.22728507,8.89221719 L2.67647059,8.89221719 C2.34832579,8.89221719 2.08257919,8.62678733 2.08257919,8.29832579 C2.08257919,7.97049774 2.34832579,7.70443439 2.67647059,7.70443439 L3.22728507,7.70443439 C3.55511312,7.70443439 3.82117647,7.97049774 3.82117647,8.29832579 C3.82117647,8.62678733 3.55511312,8.89221719 3.22728507,8.89221719 Z M16.8095023,8.89221719 L16.2586878,8.89221719 C15.930543,8.89221719 15.6647964,8.62678733 15.6647964,8.29832579 C15.6647964,7.97049774 15.930543,7.70443439 16.2586878,7.70443439 L16.8095023,7.70443439 C17.1373303,7.70443439 17.4033937,7.97049774 17.4033937,8.29832579 C17.4033937,8.62678733 17.1373303,8.89221719 16.8095023,8.89221719 Z"></path>
            </g>
        </g>
    </g>
</svg>