<?xml version="1.0" encoding="UTF-8"?>
<svg width="21px" height="21px" viewBox="0 0 21 21" version="1.1" xmlns="http://www.w3.org/2000/svg" xmlns:xlink="http://www.w3.org/1999/xlink">
    <!-- Generator: Sketch 45.2 (43514) - http://www.bohemiancoding.com/sketch -->
    <title>icon-add-money</title>
    <desc>Created with Sketch.</desc>
    <defs></defs>
    <g id="Symbols" stroke="none" stroke-width="1" fill="none" fill-rule="evenodd">
        <g id="icon-add-money" fill-rule="nonzero" fill="#FFFFFF">
            <path d="M17.9259036,3.07409639 C13.8271084,-1.0246988 7.17289157,-1.0246988 3.07409639,3.07409639 C-1.0246988,7.17289157 -1.0246988,13.8271084 3.07409639,17.9259036 C7.17289157,22.0246988 13.8271084,22.0246988 17.9259036,17.9259036 C22.0246988,13.8271084 22.0246988,7.14759036 17.9259036,3.07409639 Z M15.2692771,11.0945783 C15.1174699,11.2463855 14.889759,11.3475904 14.6620482,11.3475904 L11.3728916,11.3475904 L11.3728916,14.636747 C11.3728916,14.8644578 11.2716867,15.0921687 11.1198795,15.2439759 C10.9680723,15.3957831 10.7403614,15.496988 10.5126506,15.496988 C10.0319277,15.496988 9.65240964,15.1174699 9.65240964,14.636747 L9.65240964,11.3475904 L6.36325301,11.3475904 C5.88253012,11.3475904 5.50301205,10.9680723 5.50301205,10.4873494 C5.50301205,10.0066265 5.88253012,9.62710843 6.36325301,9.62710843 L9.65240964,9.62710843 L9.65240964,6.33795181 C9.65240964,5.85722892 10.0319277,5.47771084 10.5126506,5.47771084 L10.5126506,5.47771084 C10.9933735,5.47771084 11.3728916,5.85722892 11.3728916,6.33795181 L11.3728916,9.62710843 L14.6620482,9.62710843 C15.1427711,9.62710843 15.5222892,10.0066265 15.5222892,10.4873494 C15.496988,10.7150602 15.4210843,10.9427711 15.2692771,11.0945783 Z" id="Shape"></path>
        </g>
    </g>
</svg>