<?xml version="1.0" encoding="UTF-8"?>
<svg width="20px" height="14px" viewBox="0 0 20 14" version="1.1" xmlns="http://www.w3.org/2000/svg" xmlns:xlink="http://www.w3.org/1999/xlink">
    <!-- Generator: Sketch 45.2 (43514) - http://www.bohemiancoding.com/sketch -->
    <title>icon-shipping</title>
    <desc>Created with Sketch.</desc>
    <defs></defs>
    <g id="Symbols" stroke="none" stroke-width="1" fill="none" fill-rule="evenodd">
        <g id="icon-shipping" fill-rule="nonzero" fill="#FFFFFF">
            <g id="Group-4">
                <path d="M5.0625,7.39583333 L2.54166667,7.39583333 C2.3125,7.39583333 2.125,7.20833333 2.125,6.97916667 C2.125,6.75 2.3125,6.5625 2.54166667,6.5625 L5.0625,6.5625 C5.29166667,6.5625 5.47916667,6.75 5.47916667,6.97916667 C5.47916667,7.20833333 5.29166667,7.39583333 5.0625,7.39583333 Z" id="Shape"></path>
                <path d="M5.0625,5.22916667 L0.479166667,5.22916667 C0.25,5.22916667 0.0625,5.04166667 0.0625,4.8125 C0.0625,4.58333333 0.25,4.39583333 0.479166667,4.39583333 L5.08333333,4.39583333 C5.3125,4.39583333 5.5,4.58333333 5.5,4.8125 C5.5,5.04166667 5.29166667,5.22916667 5.0625,5.22916667 Z" id="Shape"></path>
                <path d="M5.0625,3.0625 L2.54166667,3.0625 C2.3125,3.0625 2.125,2.875 2.125,2.64583333 C2.125,2.41666667 2.3125,2.22916667 2.54166667,2.22916667 L5.0625,2.22916667 C5.29166667,2.22916667 5.47916667,2.41666667 5.47916667,2.64583333 C5.47916667,2.875 5.29166667,3.0625 5.0625,3.0625 Z" id="Shape"></path>
                <path d="M15.5625,0.0625 L12.5625,0.0625 L9.91666667,0.0625 L6.89583333,0.0625 C6.66666667,0.0625 6.47916667,0.25 6.47916667,0.479166667 L6.47916667,9.14583333 C6.47916667,9.375 6.66666667,9.5625 6.89583333,9.5625 L10.3958333,9.5625 C10.4375,9.375 10.5416667,9.1875 10.6875,9.02083333 L10.9583333,8.72916667 L7.3125,8.72916667 L7.3125,0.895833333 L9.52083333,0.895833333 L9.52083333,3.10416667 C9.52083333,3.33333333 9.70833333,3.52083333 9.9375,3.52083333 L12.5625,3.52083333 C12.7916667,3.52083333 12.9791667,3.33333333 12.9791667,3.10416667 L12.9791667,0.895833333 L15.1666667,0.895833333 L15.1666667,1.25 C15.2916667,1.20833333 15.4375,1.1875 15.5833333,1.1875 C15.7291667,1.1875 15.875,1.20833333 16,1.25 L16,0.458333333 C15.9791667,0.25 15.7916667,0.0625 15.5625,0.0625 Z M12.1458333,2.6875 L10.3541667,2.6875 L10.3541667,0.895833333 L12.1458333,0.895833333 L12.1458333,2.6875 Z" id="Shape"></path>
                <path d="M19.8333333,9.58333333 L16.7291667,6.16666667 L16.7291667,4.89583333 C16.7291667,4.04166667 16.5208333,3.1875 16.1458333,2.41666667 C16.0416667,2.1875 15.8125,2.04166667 15.5625,2.04166667 L15.5625,2.04166667 C15.3125,2.04166667 15.0833333,2.1875 14.9791667,2.41666667 C14.6041667,3.1875 14.3958333,4.04166667 14.3958333,4.89583333 L14.3958333,6.16666667 L11.2916667,9.58333333 C11.1666667,9.72916667 11.1458333,9.95833333 11.2708333,10.1041667 C11.3958333,10.2708333 11.6041667,10.3125 11.7916667,10.2291667 L14.4166667,8.97916667 L14.4166667,10.875 L13.25,12.6041667 C13.1458333,12.75 13.1458333,12.9583333 13.2708333,13.1041667 C13.375,13.25 13.5833333,13.2916667 13.75,13.2291667 L15.6041667,12.5208333 L17.4583333,13.2291667 C17.5,13.25 17.5625,13.25 17.6041667,13.25 C17.7291667,13.25 17.8541667,13.1875 17.9375,13.0833333 C18.0416667,12.9375 18.0625,12.75 17.9583333,12.5833333 L16.7916667,10.8541667 L16.7916667,8.95833333 L19.4166667,10.2083333 C19.6041667,10.2916667 19.8125,10.25 19.9375,10.0833333 C20.0625,9.91666667 19.9791667,9.72916667 19.8333333,9.58333333 Z" id="Shape"></path>
            </g>
        </g>
    </g>
</svg>