<?xml version="1.0" encoding="UTF-8"?>
<svg width="20px" height="20px" viewBox="0 0 20 20" version="1.1" xmlns="http://www.w3.org/2000/svg" xmlns:xlink="http://www.w3.org/1999/xlink">
    <!-- Generator: Sketch 45.2 (43514) - http://www.bohemiancoding.com/sketch -->
    <title>icon-order</title>
    <desc>Created with Sketch.</desc>
    <defs></defs>
    <g id="Symbols" stroke="none" stroke-width="1" fill="none" fill-rule="evenodd">
        <g id="icon-order" fill-rule="nonzero" fill="#393C49">
            <g id="Group-2">
                <path d="M7.37844485,20 C7.08160434,20 6.78419625,19.913729 6.52481554,19.7406193 L5.89991802,19.3240209 C5.76426815,19.2332093 5.58832062,19.2332093 5.4515356,19.3240209 L4.82663808,19.7406193 C4.30844422,20.0857035 3.63814088,20.086271 3.11937945,19.7406193 L2.49448193,19.3240209 C2.35939963,19.2332093 2.18288453,19.2332093 2.04609951,19.3240209 L1.26625465,19.8444851 C1.01481995,20.0113515 0.694708961,20.0266759 0.429652519,19.8842152 C0.164596077,19.742322 0,19.4676168 0,19.1668033 L0,2.8331967 C0,2.53238317 0.16516365,2.25711042 0.430220092,2.11521725 C0.695844107,1.97332408 1.0159551,1.98864855 1.26682222,2.15551491 L2.04666709,2.67597906 C2.18231696,2.76622312 2.35826449,2.76679069 2.4950495,2.67597906 L3.11994703,2.25881314 C3.63870846,1.91372895 4.30901179,1.91372895 4.82720565,2.25881314 L5.45323832,2.67597906 C5.58775304,2.76622312 5.76426815,2.76679069 5.90105316,2.67597906 L6.52595068,2.25881314 C7.04471211,1.91372895 7.71444788,1.91372895 8.23320931,2.25881314 L8.8586744,2.67597906 C8.99489185,2.76622312 9.17083938,2.76679069 9.30705682,2.67597906 L9.93195434,2.25938072 C10.4507158,1.91429653 11.1210191,1.91429653 11.6386454,2.25938072 L12.2646781,2.67654664 C12.4008955,2.76679069 12.576843,2.76735826 12.7130605,2.67654664 L13.4929053,2.15665006 C13.7426373,1.99035126 14.0627483,1.97445923 14.3289399,2.11578483 C14.5922936,2.25711042 14.7568897,2.53238317 14.7568897,2.8331967 L14.7568897,19.1662357 C14.7568897,19.4670493 14.5922936,19.742322 14.3266696,19.8847827 C14.0616132,20.0266759 13.7415022,20.0107839 13.4912026,19.8444851 L12.7102226,19.3240209 C12.5740052,19.2332093 12.3980576,19.2343445 12.2618402,19.3240209 L11.6375102,19.7406193 C11.1187488,20.086271 10.4490131,20.086271 9.93025162,19.7406193 L9.30478653,19.3240209 C9.16970423,19.2332093 8.99262156,19.2343445 8.85640411,19.3240209 L8.23207416,19.7406193 C7.97269345,19.913729 7.67585294,20 7.37844485,20 L7.37844485,20 Z M5.67572681,18.1207669 C5.97256732,18.1207669 6.26997541,18.2064703 6.52878855,18.37958 L7.15425364,18.7961783 C7.29047109,18.88699 7.46585104,18.88699 7.60206849,18.7961783 L8.22753358,18.37958 C8.74629501,18.0350634 9.41659835,18.0339282 9.93422463,18.37958 L10.5602573,18.7961783 C10.6964747,18.88699 10.8718547,18.8864224 11.0080721,18.7961783 L11.6335372,18.37958 C12.1522987,18.0350634 12.822602,18.0339282 13.3402283,18.37958 L13.6217443,18.5674466 L13.6217443,3.43255345 L13.3402283,3.62042 C12.8214669,3.96550419 12.1511635,3.96550419 11.6335372,3.62042 L11.0075046,3.20325408 C10.8712871,3.11301003 10.6953396,3.11244245 10.5591222,3.20325408 L9.93422463,3.61985243 C9.4154632,3.96493662 8.74515987,3.96493662 8.22753358,3.61985243 L7.60150091,3.20268651 C7.46641862,3.11244245 7.29047109,3.11244245 7.15368607,3.20268651 L6.52878855,3.61985243 C6.01002712,3.96493662 5.33972378,3.96493662 4.82152992,3.61985243 L4.19549726,3.20268651 C4.06098253,3.11244245 3.88446743,3.11244245 3.74768241,3.20268651 L3.12392004,3.62042 C2.60515861,3.96550419 1.93485527,3.96550419 1.41666141,3.62042 L1.13514536,3.43255345 L1.13514536,18.5674466 L1.41666141,18.37958 C1.93542284,18.0339282 2.60572618,18.0339282 3.12392004,18.37958 L3.74938513,18.7961783 C3.88560257,18.88699 4.06098253,18.88699 4.19719997,18.7961783 L4.82266507,18.37958 C5.08147821,18.2064703 5.3788863,18.1207669 5.67572681,18.1207669 L5.67572681,18.1207669 Z M10.7838809,8.1621366 L3.97300877,8.1621366 C3.65970865,8.1621366 3.40543609,7.90786403 3.40543609,7.59456391 C3.40543609,7.2812638 3.65970865,7.02699123 3.97300877,7.02699123 L10.7838809,7.02699123 C11.0977486,7.02699123 11.3514536,7.2812638 11.3514536,7.59456391 C11.3514536,7.90786403 11.0977486,8.1621366 10.7838809,8.1621366 Z M10.7838809,10.4324273 L3.97300877,10.4324273 C3.65970865,10.4324273 3.40543609,10.1781548 3.40543609,9.86485464 C3.40543609,9.55155452 3.65970865,9.29728196 3.97300877,9.29728196 L10.7838809,9.29728196 C11.0977486,9.29728196 11.3514536,9.55155452 11.3514536,9.86485464 C11.3514536,10.1781548 11.0977486,10.4324273 10.7838809,10.4324273 Z M10.7838809,12.702718 L3.97300877,12.702718 C3.65970865,12.702718 3.40543609,12.4490131 3.40543609,12.1351454 C3.40543609,11.8212777 3.65970865,11.5675727 3.97300877,11.5675727 L10.7838809,11.5675727 C11.0977486,11.5675727 11.3514536,11.8212777 11.3514536,12.1351454 C11.3514536,12.4490131 11.0977486,12.702718 10.7838809,12.702718 Z M10.7838809,14.9730088 L8.35126443,14.9730088 C8.03739673,14.9730088 7.78369174,14.7193038 7.78369174,14.4054361 C7.78369174,14.0915684 8.03739673,13.8378634 8.35126443,13.8378634 L10.7838809,13.8378634 C11.0977486,13.8378634 11.3514536,14.0915684 11.3514536,14.4054361 C11.3514536,14.7193038 11.0977486,14.9730088 10.7838809,14.9730088 Z" id="Shape"></path>
                <path d="M16,16.8013927 L16,17.9845422 C16.223216,17.952745 16.4411758,17.8714373 16.6375102,17.7406193 L17.2618402,17.3240209 C17.3980576,17.2343445 17.5740052,17.2332093 17.7102226,17.3240209 L18.4912026,17.8444851 C18.7415022,18.0107839 19.0616132,18.0266759 19.3266696,17.8847827 C19.5922936,17.742322 19.7568897,17.4670493 19.7568897,17.1662357 L19.7568897,0.833196695 C19.7568897,0.532383175 19.5922936,0.257110424 19.3289399,0.115784827 C19.0627483,-0.0255407706 18.7426373,-0.00964873557 18.4929053,0.15665006 L17.7130605,0.676546636 C17.576843,0.767358264 17.4008955,0.766790692 17.2646781,0.676546636 L16.6386454,0.259380715 C16.1210191,-0.0857034748 15.4507158,-0.0857034748 14.9319543,0.259380715 L14.3070568,0.675979063 C14.2480254,0.715333365 14.1815325,0.73752642 14.1140452,0.742696805 L15.1820016,1.45466776 L15.5591222,1.20325408 C15.6953396,1.11244245 15.8712871,1.11301003 16.0075046,1.20325408 L16.6335372,1.62042 C17.1511635,1.96550419 17.8214669,1.96550419 18.3402283,1.62042 L18.6217443,1.43255345 L18.6217443,16.5674466 L18.3402283,16.37958 C17.822602,16.0339282 17.1522987,16.0350634 16.6335372,16.37958 L16.0080721,16.7961783 C16.0053963,16.7979511 16.0027054,16.7996892 16,16.8013927 Z" id="Combined-Shape"></path>
            </g>
        </g>
    </g>
</svg>