<?xml version="1.0" encoding="UTF-8"?>
<svg width="20px" height="12px" viewBox="0 0 20 12" version="1.1" xmlns="http://www.w3.org/2000/svg" xmlns:xlink="http://www.w3.org/1999/xlink">
    <!-- Generator: Sketch 45.2 (43514) - http://www.bohemiancoding.com/sketch -->
    <title>icon-users</title>
    <desc>Created with Sketch.</desc>
    <defs></defs>
    <g id="Symbols" stroke="none" stroke-width="1" fill="none" fill-rule="evenodd">
        <g id="icon-users" fill-rule="nonzero" fill="#FFFFFF">
            <g id="Shape">
                <path d="M3.904,7.502 C5.27666667,7.502 6.39311111,6.38533333 6.39311111,5.01266667 C6.39311111,3.64 5.27644444,2.52355556 3.904,2.52355556 C2.53155556,2.52355556 1.41466667,3.64 1.41466667,5.01266667 C1.41466667,6.38533333 2.53133333,7.502 3.904,7.502 Z M3.904,3.57088889 C4.69911111,3.57088889 5.34577778,4.21755556 5.34577778,5.01266667 C5.34577778,5.80777778 4.69911111,6.45444444 3.904,6.45444444 C3.10888889,6.45444444 2.46222222,5.80755556 2.46222222,5.01266667 C2.46222222,4.21777778 3.10888889,3.57088889 3.904,3.57088889 Z"></path>
                <path d="M1.04755556,11.1651111 C1.04755556,10.0955556 1.91755556,9.22555556 2.98711111,9.22555556 L4.82066667,9.22555556 C4.87555556,9.22555556 4.93,9.22777778 4.98377778,9.23244444 C5.13555556,9.24555556 5.28622222,9.19466667 5.39644444,9.09333333 C5.50377778,8.99444444 5.56311111,8.85933333 5.56311111,8.71288889 C5.56311111,8.44577778 5.35866667,8.21666667 5.09733333,8.19155556 C5.00622222,8.18288889 4.914,8.17822222 4.82066667,8.17822222 L2.98711111,8.17822222 C1.34,8.178 0,9.518 0,11.1651111 L0,11.3804444 L1.04755556,11.3804444 L1.04755556,11.1651111 Z"></path>
                <path d="M5.74888889,11.3802222 L6.79644444,11.3802222 L6.79644444,10.0906667 C6.79644444,8.88177778 7.78,7.89822222 8.98911111,7.89822222 L11.0111111,7.89822222 C12.22,7.89822222 13.2037778,8.88177778 13.2037778,10.0906667 L13.2037778,11.3802222 L14.2513333,11.3802222 L14.2513333,10.0906667 C14.2513333,8.99711111 13.7022222,7.984 12.7824444,7.38088889 C12.2535556,7.034 11.6411111,6.85066667 11.0113333,6.85066667 L8.98933333,6.85066667 C7.98866667,6.85066667 7.05866667,7.30622222 6.43777778,8.10044444 C5.98733333,8.67666667 5.74933333,9.36488889 5.74933333,10.0906667 L5.74933333,11.3802222 L5.74888889,11.3802222 Z"></path>
                <path d="M17.0128889,8.178 L15.1793333,8.178 C15.128,8.178 15.0771111,8.17955556 15.0264444,8.18222222 C14.744,8.19777778 14.5226667,8.42822222 14.5226667,8.70711111 C14.5226667,8.85111111 14.5824444,8.99 14.6868889,9.08844444 C14.792,9.18733333 14.9295556,9.23688889 15.0726667,9.22866667 C15.108,9.22644444 15.1435556,9.22555556 15.1793333,9.22555556 L17.0128889,9.22555556 C18.0824444,9.22555556 18.9524444,10.0955556 18.9524444,11.1651111 L18.9524444,11.3804444 L20,11.3804444 L20,11.1651111 C20,9.518 18.66,8.178 17.0128889,8.178 Z"></path>
                <path d="M16.096,7.502 C17.4686667,7.502 18.5853333,6.38533333 18.5853333,5.01266667 C18.5853333,3.64 17.4686667,2.52355556 16.096,2.52355556 C14.7233333,2.52355556 13.6066667,3.64 13.6066667,5.01266667 C13.6066667,6.38533333 14.7235556,7.502 16.096,7.502 Z M16.096,3.57088889 C16.8911111,3.57088889 17.5377778,4.21755556 17.5377778,5.01266667 C17.5377778,5.80777778 16.8908889,6.45444444 16.096,6.45444444 C15.3011111,6.45444444 14.6542222,5.80755556 14.6542222,5.01266667 C14.6542222,4.21777778 15.3011111,3.57088889 16.096,3.57088889 Z"></path>
                <path d="M10,6.438 C11.7264444,6.438 13.1313333,5.03333333 13.1313333,3.30666667 C13.1313333,1.58 11.7266667,0.175333333 10,0.175333333 C8.27333333,0.175333333 6.86866667,1.58 6.86866667,3.30666667 C6.86866667,5.03311111 8.27333333,6.438 10,6.438 Z M10,1.22266667 C11.1488889,1.22266667 12.0837778,2.15755556 12.0837778,3.30666667 C12.0837778,4.45555556 11.1488889,5.39044444 10,5.39044444 C8.85088889,5.39044444 7.916,4.45555556 7.916,3.30666667 C7.916,2.15755556 8.85088889,1.22266667 10,1.22266667 Z"></path>
            </g>
        </g>
    </g>
</svg>