<?xml version="1.0" encoding="UTF-8"?>
<svg width="23px" height="15px" viewBox="0 0 23 15" version="1.1" xmlns="http://www.w3.org/2000/svg" xmlns:xlink="http://www.w3.org/1999/xlink">
    <!-- Generator: Sketch 45.2 (43514) - http://www.bohemiancoding.com/sketch -->
    <title>icon-vouchers</title>
    <desc>Created with Sketch.</desc>
    <defs></defs>
    <g id="Symbols" stroke="none" stroke-width="1" fill="none" fill-rule="evenodd">
        <g id="icon-vouchers" fill-rule="nonzero" fill="#FFFFFF">
            <path d="M0.591056082,0.202642557 C0.36488143,0.227496966 0.19521138,0.420980356 0.20015018,0.652712401 L0.200150179,5.44432778 C0.200174414,5.68671812 0.396664552,5.88320826 0.639034897,5.8832325 L1.27791961,5.8832325 C2.10731224,5.8832325 2.75568905,6.53160863 2.75568905,7.36100193 C2.75568905,8.19039523 2.10731224,8.83877137 1.27791961,8.83877137 L0.639054894,8.83877137 C0.396664552,8.8387956 0.200174414,9.03528574 0.20015018,9.27765608 L0.200150179,14.0692715 C0.200174414,14.3116618 0.396664552,14.5081519 0.639034897,14.5081762 L22.3610953,14.5081762 C22.6034856,14.5081519 22.7999758,14.3116618 22.8,14.0692915 L22.8,9.27767608 C22.7999758,9.03528574 22.6034856,8.8387956 22.3611153,8.83877137 L21.7222306,8.83877137 C20.8928379,8.83877137 20.2444611,8.19039523 20.2444611,7.36100193 C20.2444611,6.53160863 20.8928379,5.8832325 21.7222306,5.8832325 L22.3610953,5.8832325 C22.6034856,5.88320826 22.7999758,5.68671812 22.8,5.44434778 L22.8,0.652732398 C22.7999758,0.410342056 22.6034856,0.213851918 22.3611153,0.213827683 L3.19174555,0.213807685 C3.03346075,0.211569144 2.88623216,0.294730872 2.80643649,0.431448617 C2.72664082,0.568166362 2.72664082,0.737258439 2.80643649,0.873976184 C2.88623216,1.01069393 3.03346075,1.09385566 3.19457377,1.09159712 L21.9222306,1.09159712 L21.9222306,5.00546306 L21.7222306,5.00546306 C20.427967,5.00546306 19.3666917,6.06673621 19.3666917,7.36100193 C19.3666917,8.65526149 20.4279705,9.7165408 21.7222306,9.7165408 L21.9222306,9.7165408 L21.9222306,13.6304067 L1.07791961,13.6304067 L1.07791961,9.7165408 L1.27791961,9.7165408 C2.57217972,9.7165408 3.63345848,8.65526149 3.63345848,7.36100193 C3.63345848,6.06673621 2.57218314,5.00546306 1.27791961,5.00546306 L1.07791961,5.00546306 L1.07791961,4.80546306 L1.077966,0.648405158 C1.08068887,0.522002279 1.02877555,0.400563727 0.935521032,0.315189868 C0.842266509,0.229816009 0.716728078,0.188798736 0.591056082,0.202642557 Z M6.33847597,4.6858009 C6.1815275,4.69312641 6.0404574,4.78360885 5.9683685,4.92315873 C5.8962796,5.06270861 5.90412696,5.23011908 5.98895388,5.36231353 C6.0737808,5.49450798 6.22269645,5.57139734 6.38899735,5.56379014 L16.6139803,5.56381013 C16.7722648,5.5660481 16.9194928,5.48288625 16.9992881,5.34616874 C17.0790834,5.20945123 17.0790834,5.04035961 16.9992881,4.9036421 C16.9194928,4.76692459 16.7722648,4.68376274 16.6111528,4.6860207 L6.37962329,4.6858009 C6.35904963,4.68515768 6.35904963,4.68515768 6.33847597,4.6858009 Z M6.33847597,6.92189741 C6.1815275,6.92922292 6.0404574,7.01970536 5.9683685,7.15925524 C5.8962796,7.29880512 5.90412696,7.46621559 5.98895388,7.59841004 C6.0737808,7.73060449 6.22269645,7.80749385 6.38899735,7.79988665 L12.1118396,7.79990664 C12.270124,7.80214461 12.417352,7.71898276 12.4971473,7.58226525 C12.5769426,7.44554774 12.5769426,7.27645612 12.4971473,7.13973861 C12.417352,7.0030211 12.270124,6.91985925 12.1090121,6.92211721 L6.37962329,6.92189741 C6.35904963,6.92125419 6.35904963,6.92125419 6.33847597,6.92189741 Z M6.33847597,9.15799392 C6.1815275,9.16531943 6.0404574,9.25580187 5.9683685,9.39535175 C5.8962796,9.53490163 5.90412696,9.7023121 5.98895388,9.83450655 C6.0737808,9.966701 6.22269645,10.0435904 6.38899735,10.0359832 L16.6139803,10.0360031 C16.7722648,10.0382411 16.9194928,9.95507927 16.9992881,9.81836176 C17.0790834,9.68164425 17.0790834,9.51255263 16.9992881,9.37583512 C16.9194928,9.23911761 16.7722648,9.15595576 16.6111528,9.15821372 L6.37962329,9.15799392 C6.35904963,9.15735071 6.35904963,9.15735071 6.33847597,9.15799392 Z" id="Shape"></path>
        </g>
    </g>
</svg>