<?xml version="1.0" encoding="UTF-8"?>
<svg width="20px" height="21px" viewBox="0 0 20 21" version="1.1" xmlns="http://www.w3.org/2000/svg" xmlns:xlink="http://www.w3.org/1999/xlink">
    <!-- Generator: Sketch 45.2 (43514) - http://www.bohemiancoding.com/sketch -->
    <title>icon-shipments</title>
    <desc>Created with Sketch.</desc>
    <defs></defs>
    <g id="Symbols" stroke="none" stroke-width="1" fill="none" fill-rule="evenodd">
        <g id="icon-shipments" fill="#FFFFFF" fill-rule="nonzero">
            <path d="M19.9999996,5.02620769 C20.0002246,4.84781904 19.8974205,4.68495223 19.7356785,4.60734304 L10.2045956,0.0457225559 C10.0765967,-0.0147901136 9.9274521,-0.0156899302 9.79945318,0.0457225559 L0.264771048,4.59789497 C0.247224623,4.60621827 0,4.78348215 0,5.02260842 L0,15.2195556 C0,15.3979443 0.102804052,15.5603612 0.26432114,15.6379703 L9.79540401,20.1998158 C9.8597409,20.2306345 9.92902678,20.2457064 9.99808771,20.2457064 C10.0642242,20.2457064 10.1283362,20.2274851 10.1892987,20.1998158 C10.1933479,20.1998158 10.1971721,20.2016154 10.2009964,20.1998158 L19.7320792,15.6381953 C19.8938213,15.5603612 19.9964004,15.3981692 19.9964004,15.2197806 C19.9964004,15.2195556 19.9999996,5.0349809 19.9999996,5.02620769 Z M10.001687,0.97950728 L18.4547895,5.02530787 L9.99156403,9.06593452 L8.1356922,8.17781549 L12.5285971,6.06887023 C12.6903391,5.991486 12.7929182,5.82884414 12.7926933,5.65045549 C12.7926933,5.47206684 12.6896642,5.30942498 12.5276973,5.23249066 L8.63464053,3.3727946 C8.50641666,3.31115716 8.35659719,3.31138212 8.22882323,3.37346947 L3.17905221,5.80522395 L1.53868646,5.01990897 L10.001687,0.97950728 Z M0.934234632,5.76158284 L2.71992077,6.6161837 L2.71992077,11.6960986 C2.71992077,11.86099 2.80787784,12.0135089 2.95094869,12.0969669 C3.09446944,12.1801999 3.27105846,12.1819996 3.41570399,12.101241 L4.81514383,11.3211 L6.6923863,13.8441859 C6.78214301,13.9652112 6.92251441,14.0324725 7.06805975,14.0324725 C7.11687481,14.0324725 7.16636472,14.0248241 7.21427996,14.0090773 C7.4059409,13.946765 7.53506459,13.7688262 7.53506459,13.5681671 L7.53506459,8.92106404 L9.53108287,9.87644437 L9.53108287,19.0422017 L0.934234632,14.9275651 L0.934234632,5.76158284 Z M10.4650925,19.0422017 L10.4650925,9.87014565 L19.0621657,5.76563202 L19.0621657,14.9275651 L10.4650925,19.0422017 Z"></path>
        </g>
    </g>
</svg>