<?xml version="1.0" encoding="UTF-8"?>
<svg width="40px" height="50px" viewBox="0 0 40 50" version="1.1" xmlns="http://www.w3.org/2000/svg" xmlns:xlink="http://www.w3.org/1999/xlink">
    <!-- Generator: Sketch 45.2 (43514) - http://www.bohemiancoding.com/sketch -->
    <title>icon-jpg</title>
    <desc>Created with Sketch.</desc>
    <defs>
        <path d="M0,4.50323817 C0,2.0161684 2.01429647,0 4.48738197,0 L35.3053641,0 C37.7836768,0 39.7927461,2.02198625 39.7927461,4.50323817 L39.7927461,45.4967618 C39.7927461,47.9838316 37.7784496,50 35.3053641,50 L4.48738197,50 C2.00906934,50 0,47.9780138 0,45.4967618 L0,4.50323817 Z M39.7927461,12.5 L27.357513,1.49925589e-15 L35.3033416,5.41265784e-16 C37.7809903,2.4254766e-16 39.7927461,2.01253681 39.7927461,4.49512678 L39.7927461,12.5 Z" id="path-1"></path>
        <path d="M39.2521589,12.7083333 L39.2521589,4.70346011 C39.2521589,2.22087014 37.2404031,0.208333333 34.7627543,0.208333333 L26.8169257,0.208333333" id="path-2"></path>
    </defs>
    <g id="Symbols" stroke="none" stroke-width="1" fill="none" fill-rule="evenodd">
        <g id="icon-jpg">
            <g id="pdf_225">
                <g>
                    <g id="mimetype_pdf_1c">
                        <g id="Rectangle-36">
                            <use fill="#FFFFFF" fill-rule="evenodd" xlink:href="#path-1"></use>
                            <path stroke="#53D98B" stroke-width="1.40625" d="M0.703125,4.50323817 L0.703125,45.4967618 C0.703125,47.5923917 2.4000923,49.296875 4.48738197,49.296875 L35.3053641,49.296875 C37.3915005,49.296875 39.0896211,47.5941241 39.0896211,45.4967618 L39.0896211,4.50323817 C39.0896211,2.40760825 37.3926538,0.703125 35.3053641,0.703125 L4.48738197,0.703125 C2.40124563,0.703125 0.703125,2.40587589 0.703125,4.50323817 Z M39.0896211,10.7962511 L39.0896211,4.49512678 C39.0896211,2.40132043 37.3931227,0.703125 35.3033416,0.703125 L29.048791,0.703125 L39.0896211,10.7962511 Z"></path>
                        </g>
                        <g id="Group" transform="translate(10.000000, 14.000000)" fill-rule="nonzero" fill="#53D98B">
                            <path d="M19.7039832,3.2829679 L18.0738931,2.99692713 L18.0738931,0.355638922 C18.0738931,0.159081496 17.9136574,0 17.7156739,0 L0.357834041,0 C0.160235696,0 0,0.159463904 0,0.355638922 L0,12.5846466 C0,12.7815864 0.157924604,12.9682012 0.352441494,13.0018531 L17.4464317,15.9945737 C17.6413338,16.028608 17.8266063,15.8989719 17.8612727,15.7058561 L19.9944104,3.69443831 C20.0290768,3.50094015 19.8988853,3.31623735 19.7039832,3.2829679 Z M16.8297554,11.3192603 C16.8297554,11.5154353 16.6699049,11.6745168 16.4723065,11.6745168 L1.60120141,11.6745168 C1.40321788,11.6745168 1.24259701,11.5154353 1.24259701,11.3192603 L1.24259701,1.58966774 C1.24259701,1.39311032 1.40321788,1.23441123 1.60120141,1.23441123 L16.4723065,1.23441123 C16.6699049,1.23441123 16.8297554,1.39349272 16.8297554,1.58966774 L16.8297554,11.3192603 Z" id="Shape"></path>
                            <path d="M12.9754823,6.41356185 C12.8668319,6.25633383 12.6903686,6.25633383 12.5813435,6.41356185 L11.5600293,7.89307004 C11.4510042,8.05104322 11.2887778,8.04210134 11.1977363,7.87406855 L9.16522361,4.12630402 C9.11951549,4.04210134 9.05994507,4 9,4 C8.94005493,4 8.88048451,4.04210134 8.83477639,4.12630402 L6.8026384,7.87406855 C6.71159682,8.04210134 6.54937046,8.05104322 6.44034536,7.89307004 L5.41865651,6.41356185 C5.31000606,6.25633383 5.13354275,6.25633383 5.02489231,6.41356185 L2.05199131,10.7146051 C1.94334087,10.8718331 2.01040442,11 2.20260331,11 L9,11 L15.7973967,11 C15.9895956,11 16.0566591,10.8718331 15.9480087,10.7146051 L12.9754823,6.41356185 Z" id="Shape"></path>
                        </g>
                        <g id="Path-50-Copy" transform="translate(33.034542, 6.458333) scale(-1, -1) translate(-33.034542, -6.458333) ">
                            <use fill-opacity="0.449303668" fill="#53D98B" fill-rule="evenodd" xlink:href="#path-2"></use>
                            <path stroke="#53D98B" stroke-width="1.40625" d="M38.5490339,11.0045844 L38.5490339,4.70346011 C38.5490339,2.60965376 36.8525355,0.911458333 34.7627543,0.911458333 L28.5082038,0.911458333 L38.5490339,11.0045844 Z"></path>
                        </g>
                        <g id="Rectangle-37-+-pdf" transform="translate(14.000000, 33.410042)" fill="#53D98B">
                            <path d="M2.17397051,3.32478552 C2.17397051,3.51673286 2.1522625,3.71781754 2.10884584,3.92804558 C2.06542918,4.13827362 1.98545233,4.3313606 1.86891287,4.50731233 C1.75237341,4.68326406 1.59013464,4.82836493 1.38219169,4.9426193 C1.17424874,5.05687367 0.905754996,5.114 0.576702413,5.114 C0.165386683,5.114 -0.177371283,5.00774503 -0.451581769,4.7952319 C-0.725792256,4.58271878 -0.908596505,4.30965493 -1,3.97603217 L0.0351394102,3.62641555 C0.0671306336,3.75438044 0.125399488,3.85720783 0.209947721,3.9349008 C0.294495954,4.01259378 0.398465871,4.05143968 0.52186059,4.05143968 C0.71380793,4.05143968 0.840628378,3.98517314 0.902325737,3.85263807 C0.964023097,3.720103 0.994871314,3.54643896 0.994871314,3.33164075 L0.994871314,0.13024933 L2.17397051,0.13024933 L2.17397051,3.32478552 Z M6.82867024,1.62468901 C6.82867024,1.90803984 6.77611402,2.14682789 6.671,2.34106032 C6.56588598,2.53529275 6.42421269,2.69181889 6.24597587,2.81064343 C6.06773906,2.92946798 5.86208428,3.01629999 5.62900536,3.07114209 C5.39592645,3.12598419 5.15371082,3.15340483 4.90235121,3.15340483 L4.31965684,3.15340483 L4.31965684,4.98375067 L3.14741287,4.98375067 L3.14741287,0.13024933 L4.92977212,0.13024933 C5.19484225,0.13024933 5.44277052,0.156527441 5.67356434,0.20908445 C5.90435817,0.26164146 6.10544284,0.346188425 6.2768244,0.462727882 C6.44820595,0.579267339 6.58302408,0.732365897 6.68128284,0.92202815 C6.7795416,1.1116904 6.82867024,1.34590835 6.82867024,1.62468901 Z M5.65642627,1.63154424 C5.65642627,1.51728987 5.63357574,1.42360269 5.58787399,1.35047989 C5.54217225,1.2773571 5.48047581,1.22023077 5.40278284,1.1790992 C5.32508987,1.13796762 5.23711533,1.11054699 5.13885657,1.09683646 C5.04059781,1.08312594 4.93891295,1.07627078 4.83379893,1.07627078 L4.31965684,1.07627078 L4.31965684,2.22109383 L4.81323324,2.22109383 C4.92291744,2.22109383 5.02802988,2.21195362 5.12857373,2.19367292 C5.22911757,2.17539222 5.31937717,2.14340148 5.39935523,2.09769973 C5.47933329,2.05199798 5.54217225,1.99144408 5.58787399,1.91603619 C5.63357574,1.84062831 5.65642627,1.74579861 5.65642627,1.63154424 Z M11.8466971,4.68897587 C11.609048,4.81237059 11.331414,4.91291293 11.0137869,4.9906059 C10.6961597,5.06829887 10.3499742,5.10714477 9.97521984,5.10714477 C9.58675498,5.10714477 9.22914417,5.04544834 8.90237668,4.92205362 C8.57560918,4.7986589 8.29454765,4.62499486 8.05918365,4.4010563 C7.82381965,4.17711774 7.63987287,3.908624 7.5073378,3.59556702 C7.37480273,3.28251005 7.30853619,2.93403945 7.30853619,2.55014477 C7.30853619,2.16167992 7.37594526,1.80978174 7.51076542,1.49443968 C7.64558557,1.17909762 7.8318174,0.910603879 8.06946649,0.688950402 C8.30711558,0.467296926 8.58589206,0.297060469 8.90580429,0.178235925 C9.22571652,0.0594113809 9.57075954,0 9.9409437,0 C10.3248384,0 10.6813067,0.0582688543 11.0103592,0.174808311 C11.3394118,0.291347768 11.606763,0.447873906 11.8124209,0.644391421 L11.0720563,1.48758445 C10.9578019,1.35504938 10.8069884,1.24650936 10.6196113,1.16196113 C10.4322341,1.07741289 10.2197242,1.03513941 9.98207507,1.03513941 C9.7764172,1.03513941 9.58675779,1.07284279 9.41309115,1.14825067 C9.23942451,1.22365855 9.08861101,1.328771 8.96064611,1.46359115 C8.83268122,1.59841131 8.73328141,1.75836503 8.6624437,1.9434571 C8.59160599,2.12854918 8.55618767,2.33077638 8.55618767,2.55014477 C8.55618767,2.77408334 8.58817841,2.97973812 8.65216086,3.16711528 C8.7161433,3.35449245 8.81097301,3.51558869 8.93665282,3.65040885 C9.06233262,3.785229 9.21771623,3.89034145 9.40280831,3.96574933 C9.58790039,4.04115721 9.7992678,4.07886059 10.0369169,4.07886059 C10.1740221,4.07886059 10.3042702,4.06857785 10.4276649,4.04801206 C10.5510596,4.02744628 10.6653123,3.99431301 10.7704263,3.94861126 L10.7704263,3.06428686 L9.84497051,3.06428686 L9.84497051,2.11826542 L11.8466971,2.11826542 L11.8466971,4.68897587 Z" id="JPG"></path>
                        </g>
                    </g>
                </g>
            </g>
        </g>
    </g>
</svg>