<?xml version="1.0" encoding="UTF-8"?>
<svg width="18px" height="21px" viewBox="0 0 18 21" version="1.1" xmlns="http://www.w3.org/2000/svg" xmlns:xlink="http://www.w3.org/1999/xlink">
    <!-- Generator: Sketch 45.2 (43514) - http://www.bohemiancoding.com/sketch -->
    <title>icon-invoices</title>
    <desc>Created with Sketch.</desc>
    <defs></defs>
    <g id="Symbols" stroke="none" stroke-width="1" fill="none" fill-rule="evenodd">
        <g id="icon-invoices" stroke-width="0.2" stroke="#FFFFFF" fill="#FFFFFF" fill-rule="nonzero">
            <g id="Shape">
                <path d="M14.3237251,0.78713969 L14.3237251,2.08203991 L14.3237251,5.19290466 L14.3237251,8.94235033 L14.3237251,12.1840355 C14.3237251,12.7095344 14.3015521,13.2394678 14.3237251,13.7627494 L14.3237251,13.7849224 C14.3614191,13.6940133 14.3991131,13.6031042 14.4368071,13.5099778 C13.9733925,13.9733925 13.5077605,14.4390244 13.0443459,14.902439 C12.3037694,15.6430155 11.5631929,16.383592 10.8226164,17.1241685 C10.6518847,17.2949002 10.481153,17.4656319 10.3104213,17.6363636 C10.4013304,17.5986696 10.4922395,17.5609756 10.5853659,17.5232816 L9.53215078,17.5232816 L7.0443459,17.5232816 L4.10421286,17.5232816 L1.68736142,17.5232816 L0.993348115,17.5232816 L0.822616408,17.5232816 L0.789356984,17.5232816 C0.731707317,17.5254989 0.789356984,17.5388027 0.802660754,17.5277162 C0.798226164,17.5299335 0.747228381,17.5099778 0.747228381,17.5121951 C0.758314856,17.5166297 0.829268293,17.5343681 0.764966741,17.5121951 C0.784922395,17.518847 0.813747228,17.5698448 0.77827051,17.5210643 C0.736141907,17.4611973 0.804878049,17.5631929 0.780487805,17.5232816 C0.753880266,17.4789357 0.798226164,17.5898004 0.78713969,17.5388027 C0.77383592,17.4855876 0.7827051,17.6119734 0.78713969,17.556541 L0.78713969,17.54102 L0.78713969,17.5365854 L0.78713969,17.5099778 L0.78713969,17.3924612 L0.78713969,16.9312639 L0.78713969,15.2239468 L0.78713969,12.7694013 L0.78713969,9.89578714 L0.78713969,6.92904656 L0.78713969,4.2195122 L0.78713969,2.11086475 L0.78713969,0.929046563 L0.78713969,0.815964523 L0.78713969,0.791574279 L0.78713969,0.78713969 C0.78713969,0.764966741 0.796008869,0.711751663 0.784922395,0.802660754 C0.789356984,0.77383592 0.815964523,0.756097561 0.776053215,0.813747228 C0.784922395,0.800443459 0.831485588,0.745011086 0.793791574,0.780487805 C0.742793792,0.827050998 0.831485588,0.738359202 0.784922395,0.789356984 C0.749445676,0.827050998 0.78713969,0.7827051 0.804878049,0.77827051 C0.855875831,0.76940133 0.740576497,0.798226164 0.791574279,0.784922395 C0.844789357,0.771618625 0.720620843,0.780487805 0.776053215,0.784922395 L0.793791574,0.784922395 L0.820399113,0.784922395 L0.951219512,0.784922395 L2.345898,0.784922395 L4.75166297,0.784922395 L7.66518847,0.784922395 L10.5521064,0.784922395 L12.9090909,0.784922395 L14.2239468,0.784922395 C14.2572062,0.78713969 14.2904656,0.784922395 14.3237251,0.78713969 L14.3392461,0.78713969 C14.4146341,0.784922395 14.2926829,0.776053215 14.3370288,0.78713969 C14.3880266,0.800443459 14.2771619,0.753880266 14.3215078,0.780487805 C14.368071,0.809312639 14.2660754,0.736141907 14.3104213,0.76940133 C14.3237251,0.77827051 14.3547672,0.824833703 14.3259424,0.7827051 C14.2882483,0.725055432 14.3636364,0.820399113 14.3192905,0.76940133 C14.2882483,0.729490022 14.3303769,0.764966741 14.3237251,0.78713969 C14.3126386,0.840354767 14.3215078,0.694013304 14.3237251,0.78713969 C14.3303769,0.988913525 14.4966741,1.18403548 14.7117517,1.1751663 C14.9157428,1.16629712 15.1086475,1.00443459 15.0997783,0.78713969 C15.0842572,0.350332594 14.7560976,0.0155210643 14.3148559,0.0110864745 L14.0953437,0.0110864745 L13.0886918,0.0110864745 L9.48115299,0.0110864745 L5.14190687,0.0110864745 L1.73392461,0.0110864745 L0.89578714,0.0110864745 C0.840354767,0.0110864745 0.784922395,0.0110864745 0.729490022,0.0155210643 C0.314855876,0.0554323725 0.0155210643,0.396895787 0.0110864745,0.809312639 C0.0044345898,1.36363636 0.0110864745,1.92017738 0.0110864745,2.4767184 L0.0110864745,6.02217295 L0.0110864745,10.3592018 L0.0110864745,14.4013304 L0.0110864745,17.0620843 C0.0110864745,17.2195122 0.0066518847,17.3769401 0.0110864745,17.5343681 C0.0243902439,17.9689579 0.359201774,18.2904656 0.791574279,18.3037694 C0.858093126,18.3059867 0.926829268,18.3037694 0.993348115,18.3037694 L4.0421286,18.3037694 L8.29711752,18.3037694 L9.88913525,18.3037694 C10.1175166,18.3037694 10.3503326,18.3126386 10.578714,18.3037694 C10.7627494,18.2971175 10.8514412,18.1973392 10.9667406,18.0820399 C11.1064302,17.9423503 11.2439024,17.804878 11.383592,17.6651885 C11.8425721,17.2062084 12.3015521,16.7472284 12.7583149,16.2904656 C13.248337,15.8004435 13.7383592,15.3104213 14.2283814,14.8203991 C14.4789357,14.5698448 14.7383592,14.3281596 14.9778271,14.0709534 C15.1374723,13.9002217 15.097561,13.6430155 15.097561,13.4257206 L15.097561,12.2771619 L15.097561,8.4789357 L15.097561,4.19290466 L15.097561,1.2195122 L15.097561,0.789356984 C15.097561,0.585365854 14.9201774,0.392461197 14.7095344,0.401330377 C14.5033259,0.407982262 14.3237251,0.569844789 14.3237251,0.78713969 Z"></path>
                <path d="M14.4478936,13.5232816 L13.0576497,14.9135255 C12.3170732,15.654102 11.578714,16.3924612 10.8381375,17.1330377 C10.6674058,17.3037694 10.4966741,17.4745011 10.3259424,17.6452328 C10.5476718,17.7361419 10.767184,17.827051 10.9889135,17.9201774 L10.9889135,16.5898004 L10.9889135,14.5454545 C10.9889135,14.5277162 11.0022173,14.1396896 10.9889135,14.1374723 C10.9933481,14.1374723 10.9733925,14.2128603 10.9866962,14.1707317 C11,14.1263858 10.9711752,14.1995565 10.9711752,14.1995565 C10.9689579,14.195122 10.9866962,14.1685144 10.9911308,14.1640798 C11.0266075,14.1263858 10.9423503,14.2172949 10.9800443,14.1796009 C11.0110865,14.1485588 10.9534368,14.1995565 10.9534368,14.1973392 C10.9534368,14.1929047 10.9844789,14.1796009 10.9889135,14.1773836 C11.0288248,14.1596452 10.9600887,14.1906874 10.9600887,14.1906874 C11.0199557,14.1640798 10.9445676,14.2017738 10.940133,14.1884701 L10.9911308,14.1884701 L11.1840355,14.1884701 L13.1108647,14.1884701 C13.6385809,14.1884701 14.1662971,14.1995565 14.6940133,14.1884701 L14.7228381,14.1884701 C14.9268293,14.1884701 15.1197339,14.0110865 15.1108647,13.8004435 C15.1019956,13.5898004 14.940133,13.4124169 14.7228381,13.4124169 L13.3392461,13.4124169 L11.2793792,13.4124169 C11.0554324,13.4124169 10.8425721,13.3968958 10.631929,13.4900222 C10.3636364,13.6097561 10.2195122,13.8891353 10.210643,14.172949 C10.2084257,14.2261641 10.210643,14.2771619 10.210643,14.3303769 L10.210643,16.2527716 C10.210643,16.7982262 10.195122,17.345898 10.210643,17.8913525 L10.210643,17.9201774 C10.210643,18.2572062 10.6341463,18.4323725 10.8736142,18.195122 C11.3370288,17.7317073 11.8004435,17.2682927 12.2638581,16.804878 C13.0044346,16.0643016 13.7427938,15.3259424 14.4833703,14.5853659 C14.654102,14.4146341 14.8248337,14.2439024 14.9955654,14.0731707 C15.1396896,13.9290466 15.1507761,13.6651885 14.9955654,13.5254989 C14.8403548,13.3813747 14.6008869,13.3702882 14.4478936,13.5232816 Z"></path>
                <path d="M5.47450111,12.8203991 L7.86031042,12.8203991 C8.05543237,12.8203991 8.24833703,12.8115299 8.44345898,12.7716186 C8.83370288,12.691796 9.20842572,12.4745011 9.48115299,12.1840355 C10.0776053,11.5476718 10.2017738,10.5875831 9.78713969,9.81818182 C9.42350333,9.14190687 8.70288248,8.76496674 7.94678492,8.76496674 L7.25055432,8.76496674 C7.16407982,8.76496674 7.07760532,8.76718404 6.99113082,8.76053215 C6.97117517,8.75831486 6.95121951,8.75609756 6.92904656,8.75388027 C6.94235033,8.75388027 7.01330377,8.76940133 6.94235033,8.75609756 C6.89800443,8.74722838 6.85365854,8.7383592 6.80931264,8.72727273 C6.76718404,8.71618625 6.72283814,8.70288248 6.68070953,8.68957871 C6.66297118,8.68292683 6.64301552,8.67627494 6.62527716,8.66962306 C6.53436807,8.63636364 6.6962306,8.70731707 6.6097561,8.66297118 C6.53215078,8.62305987 6.45454545,8.58314856 6.38137472,8.53215078 C6.36585366,8.5210643 6.35033259,8.50997783 6.33481153,8.49889135 C6.40354767,8.54323725 6.36141907,8.51884701 6.34368071,8.50554324 C6.3037694,8.47006652 6.26385809,8.4368071 6.22616408,8.39911308 C6.19512195,8.36807095 6.16629712,8.33702882 6.13747228,8.3037694 C6.12416851,8.28824834 6.11308204,8.27494457 6.09977827,8.2594235 C6.15299335,8.32372506 6.11973392,8.28381375 6.10864745,8.26829268 C6.05543237,8.18625277 6.00665188,8.10421286 5.96230599,8.01773836 C5.95343681,8 5.93569845,7.94900222 5.96674058,8.02882483 C5.96008869,8.01108647 5.95121951,7.99334812 5.94456763,7.97339246 C5.92904656,7.93126386 5.91574279,7.88913525 5.90465632,7.84700665 C5.89356984,7.80266075 5.88248337,7.76053215 5.87361419,7.71618625 C5.8691796,7.6962306 5.86696231,7.67627494 5.86252772,7.65631929 C5.87804878,7.75388027 5.86474501,7.66075388 5.86252772,7.63858093 C5.85587583,7.54545455 5.85809313,7.45232816 5.86474501,7.35920177 C5.8691796,7.28603104 5.86474501,7.35920177 5.86252772,7.37250554 C5.86696231,7.35254989 5.8691796,7.33259424 5.87361419,7.31263858 C5.88470067,7.2594235 5.89578714,7.20620843 5.9113082,7.15299335 C5.92461197,7.11086475 5.94013304,7.06873614 5.95343681,7.02660754 C5.96008869,7.00665188 5.98669623,6.96452328 5.94900222,7.03769401 C5.9578714,7.01995565 5.96452328,7.00221729 5.97339246,6.98447894 C6.01773836,6.89800443 6.06873614,6.81596452 6.12416851,6.73614191 C6.07538803,6.80487805 6.13303769,6.72727273 6.15521064,6.70288248 C6.18625277,6.66740576 6.22172949,6.63192905 6.25498891,6.59866962 C6.28381375,6.57206208 6.31263858,6.54767184 6.34146341,6.5210643 C6.39467849,6.4767184 6.34146341,6.5210643 6.33259424,6.52771619 C6.35698448,6.51219512 6.37915743,6.49445676 6.40354767,6.4789357 C6.4767184,6.43015521 6.55432373,6.3924612 6.63414634,6.35254989 C6.54767184,6.39689579 6.66740576,6.34146341 6.69179601,6.33259424 C6.7383592,6.31707317 6.78713969,6.3037694 6.83592018,6.29268293 C6.88026608,6.28159645 6.92461197,6.27494457 6.96895787,6.26607539 C6.8691796,6.28381375 7.00665188,6.26385809 7.03325942,6.26385809 C7.06430155,6.2616408 7.09312639,6.2616408 7.12416851,6.2616408 C7.93791574,6.25720621 8.75166297,6.2616408 9.5654102,6.2616408 L9.64301552,6.2616408 C9.84700665,6.2616408 10.0399113,6.08425721 10.0310421,5.87361419 C10.0221729,5.66297118 9.86031042,5.48558758 9.64301552,5.48558758 L7.25720621,5.48558758 C7.06208426,5.48558758 6.8691796,5.49445676 6.67405765,5.53436807 C6.28381375,5.61419069 5.90909091,5.83148559 5.63636364,6.12195122 C5.03991131,6.75831486 4.91574279,7.71840355 5.33037694,8.48780488 C5.6940133,9.16407982 6.41463415,9.54101996 7.17073171,9.54101996 L7.86696231,9.54101996 C7.95343681,9.54101996 8.03991131,9.53880266 8.12638581,9.54545455 C8.14634146,9.54767184 8.16629712,9.54988914 8.18847007,9.55210643 C8.1751663,9.55210643 8.10421286,9.53658537 8.1751663,9.54988914 C8.2195122,9.55875831 8.26385809,9.56762749 8.30820399,9.57871397 C8.35033259,9.58980044 8.39467849,9.60310421 8.4368071,9.61640798 C8.45454545,9.62305987 8.47450111,9.62971175 8.49223947,9.63636364 C8.58314856,9.66962306 8.42128603,9.59866962 8.50776053,9.64301552 C8.58536585,9.68292683 8.66297118,9.72283814 8.73614191,9.77383592 C8.75166297,9.78492239 8.76718404,9.79600887 8.7827051,9.80709534 C8.71396896,9.76274945 8.75609756,9.78713969 8.77383592,9.80044346 C8.81374723,9.83592018 8.85365854,9.8691796 8.89135255,9.90687361 C8.92239468,9.93791574 8.95121951,9.96895787 8.98004435,10.0022173 C8.99334812,10.0177384 9.00443459,10.0310421 9.01773836,10.0465632 C8.96452328,9.98226164 8.99778271,10.0221729 9.00886918,10.037694 C9.06208426,10.1197339 9.11086475,10.2017738 9.15521064,10.2882483 C9.16407982,10.3059867 9.18181818,10.3569845 9.15077605,10.2771619 C9.15742794,10.2949002 9.16629712,10.3126386 9.172949,10.3325942 C9.18847007,10.3747228 9.20177384,10.4168514 9.21286031,10.45898 C9.22394678,10.5033259 9.23503326,10.5454545 9.24390244,10.5898004 C9.24833703,10.6097561 9.25055432,10.6297118 9.25498891,10.6496674 C9.23946785,10.5521064 9.25277162,10.6452328 9.25498891,10.6674058 C9.2616408,10.7605322 9.2594235,10.8536585 9.25277162,10.9467849 C9.24833703,11.0199557 9.25277162,10.9467849 9.25498891,10.9334812 C9.25055432,10.9534368 9.24833703,10.9733925 9.24390244,10.9933481 C9.23281596,11.0465632 9.22172949,11.0997783 9.20620843,11.1529933 C9.19290466,11.195122 9.17738359,11.2372506 9.16407982,11.2793792 C9.15742794,11.2993348 9.1308204,11.3414634 9.16851441,11.2682927 C9.15964523,11.286031 9.15299335,11.3037694 9.14412417,11.3215078 C9.09977827,11.4079823 9.04878049,11.4900222 8.99334812,11.5698448 C9.0421286,11.5011086 8.98447894,11.578714 8.96230599,11.6031042 C8.93126386,11.6385809 8.89578714,11.6740576 8.86252772,11.7073171 C8.83370288,11.7339246 8.80487805,11.7583149 8.77605322,11.7849224 C8.72283814,11.8292683 8.77605322,11.7849224 8.78492239,11.7782705 C8.76053215,11.7937916 8.7383592,11.8115299 8.71396896,11.827051 C8.64079823,11.8758315 8.5631929,11.9135255 8.48337029,11.9534368 C8.56984479,11.9090909 8.45011086,11.9645233 8.42572062,11.9733925 C8.37915743,11.9889135 8.33037694,12.0022173 8.28159645,12.0133038 C8.23725055,12.0243902 8.19290466,12.0310421 8.14855876,12.0399113 C8.24833703,12.0221729 8.11086475,12.0421286 8.08425721,12.0421286 C8.05321508,12.0443459 8.02439024,12.0443459 7.99334812,12.0443459 C7.17960089,12.0487805 6.36585366,12.0443459 5.55210643,12.0443459 L5.47450111,12.0443459 C5.27050998,12.0443459 5.07760532,12.2217295 5.0864745,12.4323725 C5.09534368,12.6430155 5.25498891,12.8203991 5.47450111,12.8203991 L5.47450111,12.8203991 Z"></path>
                <path d="M7.96008869,5.87583149 L7.96008869,4.23725055 C7.96008869,4.03325942 7.7827051,3.84035477 7.57206208,3.84922395 C7.36141907,3.85809313 7.18403548,4.01995565 7.18403548,4.23725055 L7.18403548,5.87583149 C7.18403548,6.07982262 7.36141907,6.27272727 7.57206208,6.26385809 C7.7827051,6.25498891 7.96008869,6.09312639 7.96008869,5.87583149 L7.96008869,5.87583149 Z"></path>
                <path d="M7.96008869,14.0731707 L7.96008869,12.4345898 C7.96008869,12.2305987 7.7827051,12.037694 7.57206208,12.0465632 C7.36141907,12.0554324 7.18403548,12.2172949 7.18403548,12.4345898 L7.18403548,14.0731707 C7.18403548,14.2771619 7.36141907,14.4700665 7.57206208,14.4611973 C7.7827051,14.4501109 7.96008869,14.2904656 7.96008869,14.0731707 L7.96008869,14.0731707 Z"></path>
            </g>
        </g>
    </g>
</svg>