<?xml version="1.0" encoding="UTF-8"?>
<svg width="14px" height="14px" viewBox="0 0 14 14" version="1.1" xmlns="http://www.w3.org/2000/svg" xmlns:xlink="http://www.w3.org/1999/xlink">
    <!-- Generator: Sketch 45.2 (43514) - http://www.bohemiancoding.com/sketch -->
    <title>icon-map-zoom-in</title>
    <desc>Created with Sketch.</desc>
    <defs></defs>
    <g id="Symbols" stroke="none" stroke-width="1" fill="none" fill-rule="evenodd">
        <g id="icon-map-zoom-in" fill="#BECCD4">
            <path d="M12.3127668,8.11720149 L7.87040353,8.11720149 L7.87040353,12.3127668 C7.87040353,12.9260598 7.37310563,13.4233577 6.7598127,13.4233577 C6.14651976,13.4233577 5.64922187,12.9260598 5.64922187,12.3127668 L5.64922187,8.11720149 L1.45365652,8.11720149 C0.840363586,8.11720149 0.343065693,7.61990359 0.343065693,7.00661066 C0.343065693,6.39331772 0.840363586,5.89601983 1.45365652,5.89601983 L5.64922187,5.89601983 L5.64922187,1.45365652 C5.64922187,0.840363586 6.14651976,0.343065693 6.7598127,0.343065693 C7.37310563,0.343065693 7.87040353,0.840363586 7.87040353,1.45365652 L7.87040353,5.89601983 L12.3127668,5.89601983 C12.9260598,5.89601983 13.4233577,6.39331772 13.4233577,7.00661066 C13.4233577,7.61990359 12.9260598,8.11720149 12.3127668,8.11720149 Z" id="Plus"></path>
        </g>
    </g>
</svg>