<?xml version="1.0" encoding="UTF-8"?>
<svg width="26px" height="14px" viewBox="0 0 26 14" version="1.1" xmlns="http://www.w3.org/2000/svg" xmlns:xlink="http://www.w3.org/1999/xlink">
    <!-- Generator: Sketch 46 (44423) - http://www.bohemiancoding.com/sketch -->
    <title>icon-dashboard</title>
    <desc>Created with Sketch.</desc>
    <defs></defs>
    <g id="Symbols" stroke="none" stroke-width="1" fill="none" fill-rule="evenodd">
        <g id="icon-dashboard" fill="#FFFFFF" fill-rule="nonzero">
            <path d="M22.3172921,0.801913685 C22.0872609,0.580840487 21.7328055,0.55260672 21.4702841,0.734076397 C20.9304316,1.10734834 20.2657806,1.56835673 19.475401,2.11899331 C18.2805053,2.95144548 17.1031074,3.77667793 16.0032673,4.55429251 C12.9828961,6.68977101 11.005528,8.14171684 10.587593,8.55965185 C10.0052313,9.14201357 9.68505882,9.91431096 9.68505882,10.7375882 C9.68505882,11.5603492 10.005449,12.3333805 10.5875688,12.9155004 C11.1696596,13.4971919 11.9428477,13.8176471 12.7655294,13.8176471 C13.5878983,13.8176471 14.361044,13.4971229 14.9426645,12.9155024 C15.4847148,12.3737932 17.5742058,9.23518961 20.4459606,4.75013587 L20.600747,4.73320829 C22.7142098,6.8383191 23.8872353,9.65874822 23.8872353,12.6654706 C23.8872353,13.0370916 24.1877838,13.3375294 24.5592941,13.3375294 C24.9305432,13.3375294 25.2313529,13.0369412 25.2313529,12.6654706 C25.2313529,9.18055549 23.826058,5.92279701 21.3101751,3.54759682 L21.2944622,3.42118716 C21.7687022,2.67610202 22.2091202,1.9808043 22.4199968,1.64560934 C22.590663,1.37490968 22.547664,1.02225386 22.3172921,0.801913685 Z M12.6654706,0.1 C5.73667851,0.1 0.1,5.7364255 0.1,12.6650588 C0.1,13.0361573 0.400849496,13.3371176 0.772058824,13.3371176 C1.14326815,13.3371176 1.44411765,13.0361573 1.44411765,12.6650588 C1.44411765,6.47749581 6.47775312,1.44411765 12.6654706,1.44411765 C13.6899389,1.44411765 14.7045026,1.58194438 15.6817518,1.8537951 C16.0378583,1.95313197 16.4097894,1.7432193 16.5093356,1.38585557 C16.6089947,1.0291619 16.3997839,0.658328419 16.0422836,0.55874417 C14.949228,0.254255939 13.8131844,0.1 12.6654706,0.1 Z M13.3375294,3.73717647 L13.3375294,3.02152941 C13.3375294,2.65058142 13.0364186,2.34947059 12.6654706,2.34947059 C12.2942613,2.34947059 11.9934118,2.65043093 11.9934118,3.02152941 L11.9934118,3.73717647 C11.9934118,4.10879751 12.2939603,4.40923529 12.6654706,4.40923529 C13.0367197,4.40923529 13.3375294,4.10864712 13.3375294,3.73717647 Z M4.19547059,11.4598824 C4.56671965,11.4598824 4.86752941,11.1592942 4.86752941,10.7878235 C4.86752941,10.4168755 4.56641858,10.1157647 4.19547059,10.1157647 L3.47941176,10.1157647 C3.10820244,10.1157647 2.80735294,10.4167251 2.80735294,10.7878235 C2.80735294,11.1594446 3.10790147,11.4598824 3.47941176,11.4598824 L4.19547059,11.4598824 Z M21.8523529,11.4598824 C22.223602,11.4598824 22.5244118,11.1592942 22.5244118,10.7878235 C22.5244118,10.4168755 22.2233009,10.1157647 21.8523529,10.1157647 L21.1362941,10.1157647 C20.7650848,10.1157647 20.4642353,10.4167251 20.4642353,10.7878235 C20.4642353,11.1594446 20.7647838,11.4598824 21.1362941,11.4598824 L21.8523529,11.4598824 Z"></path>
        </g>
    </g>
</svg>