<?xml version="1.0" encoding="UTF-8"?>
<svg width="20px" height="17px" viewBox="0 0 20 17" version="1.1" xmlns="http://www.w3.org/2000/svg" xmlns:xlink="http://www.w3.org/1999/xlink">
    <!-- Generator: Sketch 45.2 (43514) - http://www.bohemiancoding.com/sketch -->
    <title>icon-transaction</title>
    <desc>Created with Sketch.</desc>
    <defs></defs>
    <g id="Symbols" stroke="none" stroke-width="1" fill="none" fill-rule="evenodd">
        <g id="icon-transaction" fill="#FFFFFF" fill-rule="nonzero">
            <path d="M1.36363636,0 C0.590909091,0 0,0.590909091 0,1.36363636 L0,3.18181818 L0,5 L0,6.81818182 L0,9.54545455 L0,11.3636364 L0,13.1818182 L0,15 C0,15.7727273 0.590909091,16.3636364 1.36363636,16.3636364 L18.6363636,16.3636364 C19.4090909,16.3636364 20,15.7727273 20,15 L20,13.1818182 L20,11.3636364 L20,9.54545455 L20,6.81818182 L20,5 L20,3.18181818 L20,1.36363636 C20,0.590909091 19.4090909,0 18.6363636,0 L13.1818182,0 L6.81818182,0 L1.36363636,0 Z M1.36363636,0.909090909 L6.36363636,0.909090909 L6.36363636,1.81818182 L3.63636364,1.81818182 C3.5,1.81818182 3.40944591,1.86399136 3.31853682,1.95490045 C3.22762773,2.04580955 3.18181818,2.13636364 3.18181818,2.27272727 C3.18181818,2.77272727 2.77272727,3.18181818 2.27272727,3.18181818 C2,3.18181818 1.81818182,3.36363636 1.81818182,3.63636364 L1.81818182,7.27272727 C1.81818182,7.40909091 1.86399136,7.499645 1.95490045,7.59055409 C2.04580955,7.68146318 2.13636364,7.72727273 2.27272727,7.72727273 C2.77272727,7.72727273 3.18181818,8.13636364 3.18181818,8.63636364 C3.18181818,8.90909091 3.36363636,9.09090909 3.63636364,9.09090909 L6.36363636,9.09090909 L6.36363636,10 L1.36363636,10 C1.09090909,10 0.909090909,9.81818182 0.909090909,9.54545455 L0.909090909,6.81818182 L0.909090909,5 L0.909090909,3.18181818 L0.909090909,1.36363636 C0.909090909,1.09090909 1.09090909,0.909090909 1.36363636,0.909090909 Z M7.27272727,0.909090909 L12.7272727,0.909090909 L12.7272727,15.4545455 L7.27272727,15.4545455 L7.27272727,2.27272727 L7.27272727,0.909090909 Z M13.6363636,0.909090909 L18.6363636,0.909090909 C18.9090909,0.909090909 19.0909091,1.09090909 19.0909091,1.36363636 L19.0909091,3.18181818 L19.0909091,5 L19.0909091,6.81818182 L19.0909091,9.54545455 C19.0909091,9.81818182 18.9090909,10 18.6363636,10 L13.6363636,10 L13.6363636,9.09090909 L16.3636364,9.09090909 C16.5,9.09090909 16.5905541,9.04509955 16.6814632,8.95419045 C16.7723723,8.86328136 16.8181818,8.77272727 16.8181818,8.63636364 C16.8181818,8.13636364 17.2272727,7.72727273 17.7272727,7.72727273 C18,7.72727273 18.1818182,7.54545455 18.1818182,7.27272727 L18.1818182,3.63636364 C18.1818182,3.5 18.1360086,3.40944591 18.0450995,3.31853682 C17.9541905,3.22762773 17.8636364,3.18181818 17.7272727,3.18181818 C17.2272727,3.18181818 16.8181818,2.77272727 16.8181818,2.27272727 C16.8181818,2 16.6363636,1.81818182 16.3636364,1.81818182 L13.6363636,1.81818182 L13.6363636,0.909090909 Z M4.04563227,2.72727273 L6.36363636,2.72727273 L6.36363636,8.18181818 L4.04563227,8.18181818 C3.86381409,7.54545455 3.36363636,7.04527682 2.72727273,6.86345864 L2.72727273,4.04563227 C3.36363636,3.86381409 3.86381409,3.36363636 4.04563227,2.72727273 Z M13.6363636,2.72727273 L15.9543677,2.72727273 C16.1361859,3.36363636 16.6363636,3.86381409 17.2727273,4.04563227 L17.2727273,6.86345864 C16.6363636,7.04527682 16.1361859,7.54545455 15.9543677,8.18181818 L13.6363636,8.18181818 L13.6363636,2.72727273 Z M4.54545455,4.54545455 C4.0433775,4.54545455 3.63636364,4.95246841 3.63636364,5.45454545 C3.63636364,5.9566225 4.0433775,6.36363636 4.54545455,6.36363636 C5.04753159,6.36363636 5.45454545,5.9566225 5.45454545,5.45454545 C5.45454545,4.95246841 5.04753159,4.54545455 4.54545455,4.54545455 Z M15.4545455,4.54545455 C14.9524684,4.54545455 14.5454545,4.95246841 14.5454545,5.45454545 C14.5454545,5.9566225 14.9524684,6.36363636 15.4545455,6.36363636 C15.9566225,6.36363636 16.3636364,5.9566225 16.3636364,5.45454545 C16.3636364,4.95246841 15.9566225,4.54545455 15.4545455,4.54545455 Z M0.909090909,10.8185368 C1.04545455,10.8639914 1.18181818,10.9090909 1.36363636,10.9090909 L6.36363636,10.9090909 L6.36363636,11.8181818 L1.36363636,11.8181818 C1.09090909,11.8181818 0.909090909,11.6363636 0.909090909,11.3636364 L0.909090909,10.8185368 Z M19.0909091,10.8185368 L19.0909091,11.3636364 C19.0909091,11.6363636 18.9090909,11.8181818 18.6363636,11.8181818 L13.6363636,11.8181818 L13.6363636,10.9090909 L18.6363636,10.9090909 C18.8181818,10.9090909 18.9545455,10.8639914 19.0909091,10.8185368 Z M0.909090909,12.6367186 C1.04545455,12.6821732 1.18181818,12.7272727 1.36363636,12.7272727 L6.36363636,12.7272727 L6.36363636,13.6363636 L1.36363636,13.6363636 C1.09090909,13.6363636 0.909090909,13.4545455 0.909090909,13.1818182 L0.909090909,12.6367186 Z M19.0909091,12.6367186 L19.0909091,13.1818182 C19.0909091,13.4545455 18.9090909,13.6363636 18.6363636,13.6363636 L13.6363636,13.6363636 L13.6363636,12.7272727 L18.6363636,12.7272727 C18.8181818,12.7272727 18.9545455,12.6821732 19.0909091,12.6367186 Z M0.909090909,14.4549005 C1.04545455,14.500355 1.18181818,14.5454545 1.36363636,14.5454545 L6.36363636,14.5454545 L6.36363636,15.4545455 L1.36363636,15.4545455 C1.09090909,15.4545455 0.909090909,15.2727273 0.909090909,15 L0.909090909,14.4549005 Z M19.0909091,14.4549005 L19.0909091,15 C19.0909091,15.2727273 18.9090909,15.4545455 18.6363636,15.4545455 L13.6363636,15.4545455 L13.6363636,14.5454545 L18.6363636,14.5454545 C18.8181818,14.5454545 18.9545455,14.500355 19.0909091,14.4549005 Z"></path>
        </g>
    </g>
</svg>