<?xml version="1.0" encoding="UTF-8"?>
<svg width="20px" height="18px" viewBox="0 0 20 18" version="1.1" xmlns="http://www.w3.org/2000/svg" xmlns:xlink="http://www.w3.org/1999/xlink">
    <!-- Generator: Sketch 45.2 (43514) - http://www.bohemiancoding.com/sketch -->
    <title>icon-purchases</title>
    <desc>Created with Sketch.</desc>
    <defs></defs>
    <g id="Symbols" stroke="none" stroke-width="1" fill="none" fill-rule="evenodd">
        <g id="icon-purchases" fill="#FFFFFF" fill-rule="nonzero">
            <path d="M19.909788,4.61360949 L17.061603,12.7380633 C16.7461873,13.4816893 16.0284216,13.9751532 15.2211604,14.0033676 L7.10670904,14.0033676 C6.29621276,13.9764397 5.58215728,13.4628729 5.29877426,12.7030549 L1.86044741,1.60538607 C1.71845752,1.26013921 1.39269385,1.0255118 1.02024535,1.00024054 L0,1.00024054 L0,0 L1.01524415,0 C1.82481685,0.0279238154 2.53764081,0.541315028 2.82067832,1.3003127 L3.37831243,3.00072162 L18.7720143,3.00072162 C19.1768153,2.98768848 19.5620997,3.17471973 19.8022621,3.50084189 C20.0204722,3.83096324 20.0607523,4.2478151 19.909788,4.61360949 Z M18.9670612,4.0634772 C18.9133496,4.01505397 18.8413047,3.99225494 18.7695137,4.00096216 L3.70089,4.00096216 L6.26400638,12.3979815 C6.40638959,12.7439991 6.73333481,12.9787787 7.10670904,13.003127 L15.2211604,13.003127 C15.6073296,12.9762787 15.9483579,12.7415823 16.1113745,12.3904797 L18.9595594,4.2660259 C18.99135,4.20295235 18.9949834,4.12937604 18.9695618,4.0634772 L18.9670612,4.0634772 Z M14.5034878,9.00216486 L8.00192432,9.00216486 C7.72571553,9.00216486 7.50180405,8.77825339 7.50180405,8.50204459 C7.50180405,8.2258358 7.72571553,8.00192432 8.00192432,8.00192432 L14.5034878,8.00192432 C14.7796966,8.00192432 15.0036081,8.2258358 15.0036081,8.50204459 C15.0036081,8.77825339 14.7796966,9.00216486 14.5034878,9.00216486 Z M13.003127,7.00168378 L9.50228513,7.00168378 C9.22607634,7.00168378 9.00216486,6.77777231 9.00216486,6.50156351 C9.00216486,6.22535471 9.22607634,6.00144324 9.50228513,6.00144324 L13.003127,6.00144324 C13.2793358,6.00144324 13.5032473,6.22535471 13.5032473,6.50156351 C13.5032473,6.77777231 13.2793358,7.00168378 13.003127,7.00168378 Z M9.50228513,10.0024054 L13.003127,10.0024054 C13.2793358,10.0024054 13.5032473,10.2263169 13.5032473,10.5025257 C13.5032473,10.7787345 13.2793358,11.0026459 13.003127,11.0026459 L9.50228513,11.0026459 C9.22607634,11.0026459 9.00216486,10.7787345 9.00216486,10.5025257 C9.00216486,10.2263169 9.22607634,10.0024054 9.50228513,10.0024054 Z M8.50204459,15.0036081 C9.05446219,15.0036081 9.50228513,15.4514311 9.50228513,16.0038486 C9.50228513,16.5562662 9.05446219,17.0040892 8.50204459,17.0040892 C7.949627,17.0040892 7.50180405,16.5562662 7.50180405,16.0038486 C7.50180405,15.4514311 7.949627,15.0036081 8.50204459,15.0036081 Z M14.0033676,15.0036081 C14.5557852,15.0036081 15.0036081,15.4514311 15.0036081,16.0038486 C15.0036081,16.5562662 14.5557852,17.0040892 14.0033676,17.0040892 C13.45095,17.0040892 13.003127,16.5562662 13.003127,16.0038486 C13.003127,15.4514311 13.45095,15.0036081 14.0033676,15.0036081 Z"></path>
        </g>
    </g>
</svg>