<?xml version="1.0" encoding="UTF-8"?>
<svg width="20px" height="19px" viewBox="0 0 20 19" version="1.1" xmlns="http://www.w3.org/2000/svg" xmlns:xlink="http://www.w3.org/1999/xlink">
    <!-- Generator: Sketch 45.2 (43514) - http://www.bohemiancoding.com/sketch -->
    <title>icon-billing</title>
    <desc>Created with Sketch.</desc>
    <defs></defs>
    <g id="Symbols" stroke="none" stroke-width="1" fill="none" fill-rule="evenodd">
        <g id="icon-billing" fill-rule="nonzero" fill="#FFFFFF">
            <path d="M4.84964808e-06,0.513384043 L4.84964808e-06,4.10312676 C3.31665158e-05,4.38633791 0.229614088,4.61591883 0.512825238,4.61594715 L2.82051699,4.61594715 L2.82051699,18.0518404 C2.82054529,18.3350515 3.05012622,18.5646324 3.33333737,18.5646607 L16.6666675,18.5646607 C16.9498786,18.5646324 17.1794596,18.3350515 17.1794879,18.0518404 L17.1794879,4.61594715 L19.4871796,4.61594715 C19.7703908,4.61591883 19.9999717,4.38633791 20,4.10312676 L20,0.513384043 C19.9999717,0.230172893 19.7703908,0.000591971572 19.4871796,0.000563654704 L0.512825238,0.000563654704 C0.200463476,0.0254717428 -0.00113977031,0.247930498 4.84964808e-06,0.513384043 Z M1.02564563,1.02620443 L18.9743592,1.02620443 L18.9743592,3.59030637 L17.1794879,3.59030637 L17.1794879,2.82107579 L17.7243595,2.82107579 C17.909301,2.82369132 18.0813242,2.72652438 18.1745582,2.56678208 C18.2677923,2.40703979 18.2677923,2.20947102 18.1745582,2.04972872 C18.0813242,1.88998643 17.909301,1.79281948 17.7243595,1.79543501 L2.27564532,1.79543501 C2.04432919,1.80398762 1.87957639,1.90966016 1.79538529,2.07263752 C1.71119418,2.23561487 1.72035896,2.43113002 1.81942652,2.58551713 C1.91849409,2.73990424 2.09240953,2.8297017 2.27564532,2.82107579 L2.82051699,2.82107579 L2.82051699,3.59030637 L1.02564563,3.59030637 L1.02564563,1.02620443 Z M3.84615776,2.82107579 L16.1538471,2.82107579 L16.1538471,17.53902 L3.84615776,17.53902 L3.84615776,2.82107579 Z M10.0000024,4.9236389 C7.03223468,4.9236389 4.61538835,7.34048447 4.61538835,10.308253 C4.61538835,13.2760215 7.03223468,15.6928671 10.0000024,15.6928671 C12.9677697,15.6928671 15.3846165,13.2760215 15.3846165,10.308253 C15.3846165,7.34048447 12.9677697,4.9236389 10.0000024,4.9236389 Z M10.0000024,5.94927968 C12.4134718,5.94927968 14.3589757,7.89478177 14.3589757,10.308253 C14.3589757,12.7217139 12.4134718,14.6672263 10.0000024,14.6672263 C7.5865325,14.6672263 5.64102912,12.7217139 5.64102912,10.308253 C5.64102912,7.89478177 7.5865325,5.94927968 10.0000024,5.94927968 Z M9.94391269,6.71049744 C9.67970963,6.7395308 9.48146555,6.96559861 9.48718204,7.23133065 L9.48718204,7.48774084 L8.71795145,7.48774084 C8.33292437,7.48774084 7.9116637,7.56797928 7.54807994,7.83229204 C7.18449618,8.0966048 6.92308009,8.57136366 6.92308009,9.13036865 C6.92308009,9.68485569 7.1750708,10.1598171 7.53205431,10.4364581 C7.88903781,10.713099 8.31782232,10.8210734 8.71795145,10.8210734 L11.2820534,10.8210734 C11.48981,10.8210734 11.7028674,10.8789708 11.8349379,10.9813297 C11.9670084,11.0836887 12.051284,11.2007143 12.051284,11.4781245 C12.051284,11.764509 11.9764319,11.8596757 11.8509635,11.9508808 C11.7254951,12.0421115 11.5049156,12.1031243 11.2820534,12.1031243 L8.18109261,12.1031243 C7.99615116,12.1005088 7.82412789,12.1976757 7.73089389,12.357418 C7.63765988,12.5171603 7.63765988,12.7147291 7.73089389,12.8744714 C7.82412789,13.0342137 7.99615116,13.1313806 8.18109261,13.1287651 L9.48718204,13.1287651 L9.48718204,13.3851753 C9.4845665,13.5701168 9.58173345,13.74214 9.74147574,13.835374 C9.90121804,13.928608 10.0987868,13.928608 10.2585291,13.835374 C10.4182714,13.74214 10.5154383,13.5701168 10.5128228,13.3851753 L10.5128228,13.1287651 L11.2820534,13.1287651 C11.6670769,13.1287651 12.0883394,13.0405087 12.4519249,12.7762011 C12.8155105,12.5118935 13.0769248,12.03715 13.0769248,11.4781245 C13.0769248,10.9236374 12.824934,10.448676 12.4679505,10.1720351 C12.110967,9.89536846 11.6821825,9.79543259 11.2820534,9.79543259 L8.71795145,9.79543259 C8.51019484,9.79543259 8.29713745,9.72949671 8.16506697,9.6271634 C8.03299649,9.52480445 7.94872087,9.40780448 7.94872087,9.13036865 C7.94872087,8.8439841 8.02357111,8.7568431 8.14904134,8.66562517 C8.27451156,8.57441237 8.49509279,8.51338162 8.71795145,8.51338162 L11.8189122,8.51338162 C12.0038537,8.51599715 12.175877,8.41883021 12.269111,8.25908791 C12.362345,8.09934561 12.362345,7.90177685 12.269111,7.74203455 C12.175877,7.58229225 12.0038537,7.48512531 11.8189122,7.48774084 L10.5128228,7.48774084 L10.5128228,7.23133065 C10.5160042,7.08364034 10.4553482,6.94175039 10.3463888,6.84199877 C10.2374293,6.74224716 10.090749,6.69432219 9.94391269,6.71049744 Z" id="Shape"></path>
        </g>
    </g>
</svg>