<?xml version="1.0" encoding="UTF-8"?>
<svg width="18px" height="18px" viewBox="0 0 18 18" version="1.1" xmlns="http://www.w3.org/2000/svg" xmlns:xlink="http://www.w3.org/1999/xlink">
    <!-- Generator: Sketch 45.2 (43514) - http://www.bohemiancoding.com/sketch -->
    <title>icon-call</title>
    <desc>Created with Sketch.</desc>
    <defs></defs>
    <g id="Symbols" stroke="none" stroke-width="1" fill="none" fill-rule="evenodd">
        <g id="icon-call" fill="#FFFFFF">
            <path d="M17.7743948,15.4103295 C17.4258468,15.9581658 15.733079,18 14.9862327,18 C14.2892106,18 11.3019733,17.9004001 5.67589877,12.3226598 C0.0995745777,6.69523038 0.0498242505,3.70716047 0,3.00996141 C0,2.31268841 2.0413158,0.619490688 2.58901294,0.221091225 C3.13671008,-0.127545276 3.63458297,-0.0279454106 3.83373213,0.270854187 C4.03288128,0.569727726 6.12394741,3.70716047 6.37292082,4.10555993 C6.52224572,4.35452262 6.4724954,4.75299603 6.27334624,5.15139549 C6.07419709,5.54979496 5.17802589,7.04379294 5.17802589,7.04379294 C5.17802589,7.04379294 5.77547335,8.0896285 7.86653948,10.1812257 C9.95767954,12.2728968 11.0031756,12.870496 11.0031756,12.870496 C11.0031756,12.870496 12.4968682,12.0238602 12.8951665,11.7748975 C13.2934649,11.5756977 13.6917632,11.5258608 13.9407366,11.6752976 C14.3390349,11.9242603 17.475671,14.0159314 17.7743948,14.2151312 C18.0233682,14.364494 18.1229428,14.9123302 17.7743948,15.4103295"></path>
        </g>
    </g>
</svg>