<?xml version="1.0" encoding="UTF-8"?>
<svg width="17px" height="3px" viewBox="0 0 17 3" version="1.1" xmlns="http://www.w3.org/2000/svg" xmlns:xlink="http://www.w3.org/1999/xlink">
    <!-- Generator: Sketch 45.2 (43514) - http://www.bohemiancoding.com/sketch -->
    <title>icon-more-settings</title>
    <desc>Created with Sketch.</desc>
    <defs></defs>
    <g id="Symbols" stroke="none" stroke-width="1" fill="none" fill-rule="evenodd">
        <g id="icon-more-settings" fill="#BECCD4">
            <path d="M1.5,3 C0.671572875,3 0,2.32842712 0,1.5 C0,0.671572875 0.671572875,0 1.5,0 C2.32842712,0 3,0.671572875 3,1.5 C3,2.32842712 2.32842712,3 1.5,3 Z M8.25,3 C7.42157288,3 6.75,2.32842712 6.75,1.5 C6.75,0.671572875 7.42157288,0 8.25,0 C9.07842712,0 9.75,0.671572875 9.75,1.5 C9.75,2.32842712 9.07842712,3 8.25,3 Z M15,3 C14.1715729,3 13.5,2.32842712 13.5,1.5 C13.5,0.671572875 14.1715729,0 15,0 C15.8284271,0 16.5,0.671572875 16.5,1.5 C16.5,2.32842712 15.8284271,3 15,3 Z" id="Combined-Shape"></path>
        </g>
    </g>
</svg>