<?xml version="1.0" encoding="utf-8" ?>
<svg xmlns="http://www.w3.org/2000/svg" xmlns:xlink="http://www.w3.org/1999/xlink" width="53" height="21">
	<defs>
		<clipPath id="clip_0">
			<rect x="0.93988037" y="3.7805176" width="7.7321053" height="12.482742" clip-rule="evenodd"/>
		</clipPath>
	</defs>
	<g clip-path="url(#clip_0)">
		<path fill="rgb(255,255,255)" stroke="none" transform="matrix(0.96 0 0 0.96 0.939728 3.78052)" d="M5.32316 5.47936L3.9445 5.02041C2.9811 4.70036 2.53901 4.18577 2.59265 3.45153C2.60941 2.69596 3.23128 2.08933 4.0107 2.07092C4.74907 2.07092 5.51299 2.49933 5.51299 3.21683L5.51299 3.73895L7.70335 3.73895L7.66648 3.11433C7.59901 2.21316 7.18164 1.45299 6.4261 0.853469C5.73341 0.287418 4.97535 0 4.1733 0C4.11463 0 4.05596 0.00167347 3.99981 0.00418367C3.01672 0.0476939 2.15265 0.423806 1.43189 1.12039C0.727886 1.82283 0.393486 2.67881 0.438324 3.66364C0.505371 5.27896 1.36065 6.38931 2.9128 6.87503L4.30949 7.31222C5.39189 7.66031 5.88678 8.24351 5.8675 9.14886C5.84823 9.69315 5.69528 10.1023 5.39901 10.3981C5.05371 10.7412 4.6024 10.9098 3.97844 10.9286L3.92145 10.9303C3.51078 10.9303 3.11604 10.7441 2.74853 10.3768C2.35379 9.98392 2.1539 9.62287 2.1539 9.30407L2.1539 8.65602L0 8.65602L0 8.90704C0 9.98852 0.360381 10.9311 1.07067 11.7072C1.81657 12.4966 2.72381 12.9305 3.76766 12.9957C3.85272 13.0008 3.93821 13.0029 4.02286 13.0029C5.0709 13.0029 6.01794 12.6192 6.83676 11.8632C7.72598 11.019 8.13162 10.0124 8.04236 8.86981C7.93048 7.19843 7.01569 6.05796 5.32316 5.47936"/>
	</g>
	<path fill="rgb(255,255,255)" stroke="none" transform="matrix(0.96 0 0 0.96 11.4752 0.0423584)" d="M5.62781 3.99583C5.53185 3.99583 5.43463 3.99792 5.33615 4.00252C4.12636 4.05691 3.08251 4.50163 2.23352 5.32498L2.11158 5.44296L2.11158 0L0 0L0 16.5766L2.15307 16.5766L2.15307 9.27855C2.15307 8.3138 2.46316 7.55446 3.10011 6.95703C3.73162 6.34621 4.53116 6.02658 5.47821 6.00692L5.55406 6.00608C6.44202 6.00608 7.22564 6.33952 7.88354 6.99594C8.57874 7.69043 8.9165 8.47821 8.9165 9.40364L8.9165 16.5766L11.0075 16.5766L11.0075 9.57057C11.0075 7.98496 10.441 6.62694 9.32423 5.53375C8.26697 4.4987 7.05802 3.99583 5.62781 3.99583"/>
	<path fill="rgb(255,255,255)" stroke="none" transform="matrix(0.96 0 0 0.96 24.437 3.77942)" d="M6.3008 0C6.38168 0 6.46381 0.00167347 6.54594 0.00460204C8.28499 0.0707041 9.76339 0.74302 10.9401 2.00314C12.1348 3.26076 12.7399 4.77022 12.7399 6.48971C12.7399 8.2615 12.0832 9.81532 10.7871 11.1085C9.55722 12.3364 8.08804 12.9585 6.42023 12.9585C6.33851 12.9585 6.25638 12.9568 6.17215 12.9539C4.44861 12.9104 2.97147 12.2523 1.78095 10.9993C0.599238 9.75633 0 8.2456 0 6.51021C0 4.71207 0.649524 3.15156 1.93139 1.87136C3.15459 0.629643 4.62461 0 6.3008 0ZM6.44663 10.893C7.59817 10.893 8.55109 10.4742 9.35985 9.61157C10.247 8.6874 10.669 7.62642 10.6493 6.36881C10.6107 5.18817 10.1891 4.19413 9.3611 3.32769C8.55402 2.48259 7.6032 2.07134 6.45333 2.07134L6.37078 2.07134C5.21756 2.07134 4.24411 2.48385 3.39512 3.3323C2.55074 4.17531 2.13128 5.1752 2.11158 6.38972C2.09105 7.59002 2.48328 8.64012 3.27695 9.50991C4.08739 10.3977 5.04701 10.8487 6.21112 10.888C6.29284 10.8918 6.37078 10.893 6.44663 10.893Z" fill-rule="evenodd"/>
	<path fill="rgb(255,255,255)" stroke="none" transform="matrix(0.96 0 0 0.96 38.8299 3.80078)" d="M6.31657 0C6.39954 0 6.48335 0.00125497 6.56716 0.00460156C8.27683 0.0476889 9.74765 0.705294 10.9381 1.95859C12.1337 3.21858 12.74 4.72873 12.74 6.44679C12.74 8.23805 12.0909 9.80509 10.8099 11.1052C9.57878 12.3339 8.11215 12.9567 6.45108 12.9567C6.36602 12.9567 6.2797 12.9555 6.19379 12.9517C4.65467 12.8969 3.29992 12.3506 2.16894 11.3274L2.04867 11.219L2.04867 16.83L0 16.83L0 6.46728C0 4.69736 0.649927 3.14998 1.93176 1.87074C3.17547 0.629159 4.6509 0 6.31657 0ZM6.30777 10.886C7.50203 10.886 8.49557 10.4736 9.34496 9.62521C10.2027 8.76848 10.6297 7.76785 10.6494 6.56768C10.6691 5.37922 10.2802 4.36563 9.46187 3.46874C8.63804 2.56683 7.67844 2.10919 6.52861 2.0707C6.44647 2.06694 6.36979 2.06526 6.29311 2.06526C5.1462 2.06526 4.18535 2.48484 3.35733 3.34784C2.48405 4.27903 2.07088 5.33907 2.091 6.5886C2.10985 7.76242 2.52428 8.75719 3.35817 9.62981C4.16523 10.4748 5.12986 10.886 6.30777 10.886Z" fill-rule="evenodd"/>
</svg>
