<svg xmlns="http://www.w3.org/2000/svg" xmlns:xlink="http://www.w3.org/1999/xlink" width="34.000003178914255" height="42.166668289237464" version="1.1"><rect id="backgroundrect" width="100%" height="100%" x="0" y="0" fill="none" stroke="none" style="" class="selected"/>
    <!-- Generator: Sketch 46 (44423) - http://www.bohemiancoding.com/sketch -->
    <title>logo-main-white@1.5x</title>
    <desc>Created with Sketch.</desc>
    <defs>
        <polygon id="path-1" points="33.0507048 40.5815071 33.0507048 0.0986091837 0.173737143 0.0986091837 0.173737143 40.5815071"/>
        <polygon id="path-3" points="-6.09666759e-16 13.3438265 -6.09666759e-16 0.340969388 8.05427612 0.340969388 8.05427612 13.3438265 -1.04942639e-15 13.3438265"/>
    </defs>
    
<g class="currentLayer" style=""><title>Layer 1</title><g id="Symbols" stroke="none" stroke-width="1" fill="none" fill-rule="evenodd" class="">
        <g id="logo-main-white">
            <g id="Page-1">
                <path d="M10.275963814697263,21.81759252836628 C9.000801914697263,21.81759252836628 7.950668614697264,22.26482722836628 7.070249514697267,23.18356192836628 C6.252687614697265,24.01862312836628 5.837830514697266,25.03525572836628 5.837830514697266,26.20459252836628 C5.837830514697266,27.40363332836628 6.245982814697264,28.38303132836628 7.084078114697263,29.19759252836628 C7.870211414697266,29.98454152836628 8.803430514697268,30.36525572836628 9.941982814697269,30.36525572836628 C11.138782814697265,30.36525572836628 12.141982814697272,29.96278642836628 13.01108761469726,29.13316392836628 C13.931316214697262,28.25459252836628 14.37885901469727,27.20030682836628 14.37885901469727,25.91424552836628 C14.37885901469727,24.67085782836628 13.953525714697264,23.68183742836628 13.077716214697261,22.88359252836628 C12.301220914697268,22.16567412836628 11.38308761469726,21.81759252836628 10.275963814697263,21.81759252836628 " id="Fill-1" fill="#FFFFFF"/>
                <g id="Group-5">
                    <mask id="mask-2" fill="white" transform="translate(-54.374996185302734,0.2083333283662796) translate(54.89523696899414,0.319925993680954) ">
                        <use xlink:href="#path-1" id="svg_1"/>
                    </mask>
                    <g id="Clip-4"/>
                    <path d="M28.593749383691403,30.619205222047235 L22.77736838369141,36.428654222047236 L19.75184458369141,36.428654222047236 L23.71813028369141,32.46629712204724 C22.187768383691406,32.41358282204723 20.830054083691408,31.844184822047232 19.679349383691402,30.769817522047234 C18.3861683836914,29.567429722047233 17.729520783691413,28.030766422047233 17.729520783691413,26.204593022047234 C17.729520783691413,24.374235822047233 18.377368383691405,22.812888922047232 19.652949383691407,21.561970522047233 C20.925596983691406,20.291807322047234 22.475235083691402,19.646266422047233 24.25995888369141,19.646266422047233 C25.935730283691413,19.646266422047233 27.3906636836914,20.218593022047234 28.589139783691408,21.349439922047235 C29.894473183691403,22.566470522047233 30.55740648369141,24.115266422047235 30.55740648369141,25.956501122047232 C30.55740648369141,27.770123622047233 29.89489218369141,29.340256222047234 28.593749383691403,30.619205222047235 L28.593749383691403,30.619205222047235 zM14.568225583691401,30.619205222047235 L8.751006493691406,36.428654222047236 L5.727158883691409,36.428654222047236 L9.695539833691413,32.46629712204724 C8.164339833691407,32.41358282204723 6.8057874536914085,31.844184822047232 5.655082683691404,30.769817522047234 C4.361063643691409,29.567429722047233 3.705673163691408,28.030766422047233 3.705673163691408,26.204593022047234 C3.705673163691408,24.374235822047233 4.352263643691408,22.812888922047232 5.627844593691407,21.561970522047233 C6.9004922136914075,20.291807322047234 8.452225543691405,19.646266422047233 10.233596973691405,19.646266422047233 C11.909368383691401,19.646266422047233 13.36681598369141,20.218593022047234 14.563615983691406,21.349439922047235 C15.870206483691405,22.566470522047233 16.53313978369141,24.115266422047235 16.53313978369141,25.956501122047232 C16.53313978369141,27.770123622047233 15.872301783691412,29.340256222047234 14.568225583691401,30.619205222047235 L14.568225583691401,30.619205222047235 zM7.710930303691406,14.963899122047234 L7.710930303691406,13.520113422047233 L7.710930303691406,12.228613422047234 C7.710930303691406,7.042531772047234 11.937444583691402,2.822878712047234 17.132796983691406,2.822878712047234 C22.32773028369141,2.822878712047234 26.554663683691402,7.042531772047234 26.554663683691402,12.228613422047234 L26.554663683691402,13.520113422047233 L26.554663683691402,14.963899122047234 L26.554663683691402,16.255399122047233 L7.710930303691406,16.255399122047233 L7.710930303691406,14.963899122047234 zM31.118930283691412,14.963899122047234 L28.754244583691403,14.963899122047234 L28.754244583691403,12.228613422047234 C28.754244583691403,5.830939932047234 23.53919698369141,0.6268685057472336 17.132796983691406,0.6268685057472336 C10.723463683691406,0.6268685057472336 5.51093030369141,5.830939932047234 5.51093030369141,12.228613422047234 L5.51093030369141,14.963899122047234 L3.1454064936914037,14.963899122047234 L0.693977926691403,14.963899122047234 L0.693977926691403,17.411348122047233 L0.693977926691403,20.636960322047234 L0.693977926691403,38.66231752204723 C0.693977926691403,40.01322562204724 1.791463643691408,41.10976642204724 3.1454064936914037,41.10976642204724 L31.118930283691412,41.10976642204724 C32.471196983691414,41.10976642204724 33.57119698369141,40.01322562204724 33.57119698369141,38.66231752204723 L33.57119698369141,20.636960322047234 L33.57119698369141,17.411348122047233 L33.57119698369141,14.963899122047234 L31.118930283691412,14.963899122047234 z" id="Fill-3" fill="#FFFFFF" mask="url(#mask-2)"/>
                </g>
                <path d="M24.300104814697264,21.81759252836628 C23.02536191469727,21.81759252836628 21.976904814697264,22.26482722836628 21.096485714697266,23.18356192836628 C20.276828614697266,24.01862312836628 19.86364761469727,25.03525572836628 19.86364761469727,26.20459252836628 C19.86364761469727,27.40195982836628 20.27138091469726,28.38303132836628 21.10780001469726,29.19759252836628 C21.894352414697266,29.98454152836628 22.82757141469726,30.36525572836628 23.96780001469726,30.36525572836628 C25.16250481469727,30.36525572836628 26.167800014697264,29.96278642836628 27.03522861469726,29.13316392836628 C27.956295214697263,28.25459252836628 28.40300001469727,27.20030682836628 28.40300001469727,25.91424552836628 C28.40300001469727,24.67085782836628 27.977666714697264,23.68183742836628 27.10395241469726,22.88359252836628 C26.325780914697262,22.16567412836628 25.409742814697267,21.81759252836628 24.300104814697264,21.81759252836628 " id="Fill-6" fill="#FFFFFF"/>
                <g id="Group-10">
                    <mask id="mask-4" fill="white" transform="translate(-54.374996185302734,0.2083333283662796) translate(0,22.911762237548828) ">
                        <use xlink:href="#path-3" id="svg_2"/>
                    </mask>
                    <g id="Clip-9"/>
                    
                </g>
                
            </g>
        </g>
    </g></g></svg>