<?xml version="1.0" encoding="UTF-8"?>
<svg width="89px" height="42px" viewBox="0 0 89 42" version="1.1" xmlns="http://www.w3.org/2000/svg" xmlns:xlink="http://www.w3.org/1999/xlink">
    <!-- Generator: Sketch 46 (44423) - http://www.bohemiancoding.com/sketch -->
    <title>logo-main-white@1.5x</title>
    <desc>Created with Sketch.</desc>
    <defs>
        <polygon id="path-1" points="33.0507048 40.5815071 33.0507048 0.0986091837 0.173737143 0.0986091837 0.173737143 40.5815071"></polygon>
        <polygon id="path-3" points="-6.09666759e-16 13.3438265 -6.09666759e-16 0.340969388 8.05427612 0.340969388 8.05427612 13.3438265 -1.04942639e-15 13.3438265"></polygon>
    </defs>
    <g id="Symbols" stroke="none" stroke-width="1" fill="none" fill-rule="evenodd">
        <g id="logo-main-white">
            <g id="Page-1">
                <path d="M64.65096,21.6092592 C63.3757981,21.6092592 62.3256648,22.0564939 61.4452457,22.9752286 C60.6276838,23.8102898 60.2128267,24.8269224 60.2128267,25.9962592 C60.2128267,27.1953 60.620979,28.174698 61.4590743,28.9892592 C62.2452076,29.7762082 63.1784267,30.1569224 64.316979,30.1569224 C65.513779,30.1569224 66.516979,29.7544531 67.3860838,28.9248306 C68.3063124,28.0462592 68.7538552,26.9919735 68.7538552,25.7059122 C68.7538552,24.4625245 68.3285219,23.4735041 67.4527124,22.6752592 C66.6762171,21.9573408 65.7580838,21.6092592 64.65096,21.6092592" id="Fill-1" fill="#FFFFFF"></path>
                <g id="Group-5" transform="translate(54.895238, 0.319926)">
                    <mask id="mask-2" fill="white">
                        <use xlink:href="#path-1"></use>
                    </mask>
                    <g id="Clip-4"></g>
                    <path d="M28.0735086,30.0909459 L22.2571276,35.9003949 L19.2316038,35.9003949 L23.1978895,31.9380378 C21.6675276,31.8853235 20.3098133,31.3159255 19.1591086,30.2415582 C17.8659276,29.0391704 17.20928,27.5025071 17.20928,25.6763337 C17.20928,23.8459765 17.8571276,22.2846296 19.1327086,21.0337112 C20.4053562,19.763548 21.9549943,19.1180071 23.7397181,19.1180071 C25.4154895,19.1180071 26.8704229,19.6903337 28.068899,20.8211806 C29.3742324,22.0382112 30.0371657,23.5870071 30.0371657,25.4282418 C30.0371657,27.2418643 29.3746514,28.8119969 28.0735086,30.0909459 L28.0735086,30.0909459 Z M14.0479848,30.0909459 L8.23076571,35.9003949 L5.2069181,35.9003949 L9.17529905,31.9380378 C7.64409905,31.8853235 6.28554667,31.3159255 5.1348419,30.2415582 C3.84082286,29.0391704 3.18543238,27.5025071 3.18543238,25.6763337 C3.18543238,23.8459765 3.83202286,22.2846296 5.10760381,21.0337112 C6.38025143,19.763548 7.93198476,19.1180071 9.71335619,19.1180071 C11.3891276,19.1180071 12.8465752,19.6903337 14.0433752,20.8211806 C15.3499657,22.0382112 16.012899,23.5870071 16.012899,25.4282418 C16.012899,27.2418643 15.352061,28.8119969 14.0479848,30.0909459 L14.0479848,30.0909459 Z M7.19068952,14.4356398 L7.19068952,12.9918541 L7.19068952,11.7003541 C7.19068952,6.51427245 11.4172038,2.29461939 16.6125562,2.29461939 C21.8074895,2.29461939 26.0344229,6.51427245 26.0344229,11.7003541 L26.0344229,12.9918541 L26.0344229,14.4356398 L26.0344229,15.7271398 L7.19068952,15.7271398 L7.19068952,14.4356398 Z M30.5986895,14.4356398 L28.2340038,14.4356398 L28.2340038,11.7003541 C28.2340038,5.30268061 23.0189562,0.0986091837 16.6125562,0.0986091837 C10.2032229,0.0986091837 4.99068952,5.30268061 4.99068952,11.7003541 L4.99068952,14.4356398 L2.62516571,14.4356398 L0.173737143,14.4356398 L0.173737143,16.8830888 L0.173737143,20.108701 L0.173737143,38.1340582 C0.173737143,39.4849663 1.27122286,40.5815071 2.62516571,40.5815071 L30.5986895,40.5815071 C31.9509562,40.5815071 33.0509562,39.4849663 33.0509562,38.1340582 L33.0509562,20.108701 L33.0509562,16.8830888 L33.0509562,14.4356398 L30.5986895,14.4356398 Z" id="Fill-3" fill="#FFFFFF" mask="url(#mask-2)"></path>
                </g>
                <path d="M78.675101,21.6092592 C77.4003581,21.6092592 76.351901,22.0564939 75.4714819,22.9752286 C74.6518248,23.8102898 74.2386438,24.8269224 74.2386438,25.9962592 C74.2386438,27.1936265 74.6463771,28.174698 75.4827962,28.9892592 C76.2693486,29.7762082 77.2025676,30.1569224 78.3427962,30.1569224 C79.537501,30.1569224 80.5427962,29.7544531 81.4102248,28.9248306 C82.3312914,28.0462592 82.7779962,26.9919735 82.7779962,25.7059122 C82.7779962,24.4625245 82.3526629,23.4735041 81.4789486,22.6752592 C80.7007771,21.9573408 79.784739,21.6092592 78.675101,21.6092592" id="Fill-6" fill="#FFFFFF"></path>
                <g id="Group-10" transform="translate(0.000000, 22.911762)">
                    <mask id="mask-4" fill="white">
                        <use xlink:href="#path-3"></use>
                    </mask>
                    <g id="Clip-9"></g>
                    <path d="M5.32299429,5.82032653 L3.94432762,5.36137755 C2.98093714,5.04132653 2.5388419,4.52673469 2.59248,3.7925 C2.6092419,3.03692857 3.23110857,2.43029592 4.01053714,2.41188776 C4.74889905,2.41188776 5.51282286,2.84029592 5.51282286,3.55779592 L5.51282286,4.07991837 L7.70318476,4.07991837 L7.66630857,3.45529592 C7.5988419,2.55413265 7.18147048,1.79395918 6.42592762,1.19443878 C5.7332419,0.628387755 4.97518476,0.340969388 4.17312762,0.340969388 C4.11446095,0.340969388 4.05579429,0.342642857 3.9996419,0.345153061 C3.01655619,0.388663265 2.15248,0.76477551 1.4317181,1.46135714 C0.727718095,2.16379592 0.393318095,3.01977551 0.43815619,4.00461224 C0.50520381,5.61992857 1.36048,6.73027551 2.91263238,7.216 L4.3093181,7.65319388 C5.3917181,8.00127551 5.88661333,8.58447959 5.86733714,9.48982653 C5.84806095,10.0341224 5.69510857,10.4432857 5.3988419,10.7390714 C5.05354667,11.0821327 4.60223238,11.2507347 3.97827048,11.2695612 L3.92128,11.2712347 C3.51061333,11.2712347 3.11587048,11.0850612 2.74836571,10.7177347 C2.35362286,10.3248878 2.15373714,9.96383673 2.15373714,9.64504082 L2.15373714,8.9969898 L-0.000167619048,8.9969898 L-0.000167619048,9.2480102 C-0.000167619048,10.3294898 0.360213333,11.2720714 1.07049905,12.0481429 C1.81640381,12.837602 2.7236419,13.271449 3.76748952,13.3367143 C3.85255619,13.3417347 3.9380419,13.3438265 4.02268952,13.3438265 C5.07072762,13.3438265 6.01777524,12.9601837 6.83659429,12.2041939 C7.72581333,11.3599286 8.13145143,10.3533367 8.04219429,9.21077551 C7.93030857,7.53939796 7.01552762,6.39892857 5.32299429,5.82032653" id="Fill-8" fill="#FFFFFF" mask="url(#mask-4)"></path>
                </g>
                <path d="M16.60208,23.3546041 C16.5061181,23.3546041 16.408899,23.3566959 16.3104229,23.361298 C15.1006324,23.4156857 14.0567848,23.8604102 13.2077943,24.6837571 L13.0858514,24.8017367 L13.0858514,19.3587776 L10.9742705,19.3587776 L10.9742705,35.9353286 L13.1273371,35.9353286 L13.1273371,28.6373286 C13.1273371,27.6725735 13.4374324,26.9132367 14.0743848,26.3158082 C14.7058895,25.7049918 15.5054324,25.3853592 16.45248,25.3656959 L16.5283276,25.3648592 C17.4162895,25.3648592 18.1999086,25.698298 18.8578133,26.3547163 C19.5530133,27.0492061 19.8907657,27.8369918 19.8907657,28.7624204 L19.8907657,35.9353286 L21.9818133,35.9353286 L21.9818133,28.929349 C21.9818133,27.3437367 21.415261,25.9857163 20.298499,24.8925224 C19.2412419,23.8574816 18.0322895,23.3546041 16.60208,23.3546041" id="Fill-11" fill="#FFFFFF"></path>
                <path d="M33.8360419,32.8630898 C33.02728,33.7257633 32.0743657,34.144549 30.9228229,34.144549 C30.8469752,34.144549 30.7690324,34.1432939 30.6873181,34.1395286 C29.5232038,34.100202 28.5635848,33.649202 27.7531467,32.7614265 C26.9594705,31.8916408 26.5672419,30.8415388 26.5877752,29.6412429 C26.6074705,28.4267224 27.0269371,27.4268245 27.8713181,26.5838143 C28.7203086,25.7353653 29.6937562,25.3228551 30.8469752,25.3228551 L30.9295276,25.3228551 C32.0793943,25.3228551 33.0302133,25.7341102 33.837299,26.5792122 C34.6653371,27.445651 35.086899,28.4396918 35.1254514,29.6203245 C35.1451467,30.8779367 34.7231657,31.9389163 33.8360419,32.8630898 M31.0221371,23.2561204 C30.9400038,23.2531918 30.8578705,23.2515184 30.7769943,23.2515184 C29.1008038,23.2515184 27.6307848,23.8811612 26.4075848,25.1228755 C25.1257181,26.4030796 24.4761943,27.9635898 24.4761943,29.7617327 C24.4761943,31.4971204 25.0754324,33.0078449 26.2571467,34.2508143 C27.447661,35.5038245 28.9248038,36.1619163 30.6483467,36.2054265 C30.7325752,36.2083551 30.8147086,36.2100286 30.8964229,36.2100286 C32.5642324,36.2100286 34.0334133,35.5879163 35.2633181,34.3600082 C36.5594324,33.0668347 37.21608,31.5130184 37.21608,29.7412327 C37.21608,28.0217429 36.6109752,26.5122735 35.4162705,25.2546612 C34.2395848,23.9945388 32.7611848,23.3222224 31.0221371,23.2561204" id="Fill-13" fill="#FFFFFF"></path>
                <path d="M48.8139352,32.8998643 C47.9645257,33.7483133 46.9709638,34.1608235 45.7766781,34.1608235 C44.5987352,34.1608235 43.6340876,33.7495684 42.8270019,32.9044663 C41.9930971,32.031752 41.578659,31.0368745 41.5598019,29.8629357 C41.5396876,28.6132724 41.9528686,27.5531296 42.8261638,26.6218439 C43.6542019,25.758752 44.6150781,25.3391296 45.7620114,25.3391296 C45.8386971,25.3391296 45.9153829,25.3408031 45.9975162,25.3445684 C47.1473829,25.3830582 48.1070019,25.840752 48.9308495,26.742752 C49.7492495,27.6397316 50.1381257,28.6534357 50.1184305,29.8420173 C50.0987352,31.0423133 49.6717257,32.043048 48.8139352,32.8998643 M46.0360686,23.278252 C45.952259,23.2749051 45.8684495,23.27365 45.7854781,23.27365 C44.1197638,23.27365 42.6442971,23.9028745 41.4005638,25.1445888 C40.1186971,26.4239561 39.4687543,27.9714969 39.4687543,29.7416092 L39.4687543,40.1054051 L41.5174781,40.1054051 L41.5174781,34.4938439 L41.6377448,34.602201 C42.7687543,35.6255276 44.1235352,36.1719153 45.6626971,36.2267214 C45.7486019,36.2304867 45.8349257,36.2317418 45.9199924,36.2317418 C47.5810971,36.2317418 49.0477638,35.6087929 50.2789257,34.380048 C51.5599543,33.0797622 52.209059,31.5125582 52.209059,29.7211092 C52.209059,28.0028745 51.6026971,26.4925684 50.4071543,25.2324459 C49.21664,23.9790173 47.7457829,23.3213439 46.0360686,23.278252" id="Fill-15" fill="#FFFFFF"></path>
            </g>
        </g>
    </g>
</svg>