<?xml version="1.0" encoding="UTF-8"?>
<svg width="21px" height="18px" viewBox="0 0 21 18" version="1.1" xmlns="http://www.w3.org/2000/svg" xmlns:xlink="http://www.w3.org/1999/xlink">
    <!-- Generator: Sketch 46 (44423) - http://www.bohemiancoding.com/sketch -->
    <title>notifications-received@1.5x</title>
    <desc>Created with Sketch.</desc>
    <defs>
        <circle id="path-1" cx="17" cy="4" r="4"></circle>
    </defs>
    <g id="Symbols" stroke="none" stroke-width="1" fill="none" fill-rule="evenodd">
        <g id="notifications-received">
            <g id="Group-3">
                <path d="M16,14 L16,9 C16,5.481 13.386,2.568 10,2.08 L10,2 C10,1.448 9.552,1 9,1 C8.448,1 8,1.448 8,2 L8,2.08 C4.614,2.568 2,5.481 2,9 L2,14 L1,14 C0.448,14 0,14.448 0,15 C0,15.552 0.448,16 1,16 L7,16 C7,17.105 7.895,18 9,18 C10.105,18 11,17.105 11,16 L17,16 C17.552,16 18,15.552 18,15 C18,14.448 17.552,14 17,14 L16,14 Z" id="Page-1" fill="#393C49"></path>
                <g id="Oval">
                    <use fill="#53D98B" fill-rule="evenodd" xlink:href="#path-1"></use>
                    <circle stroke="#FFFFFF" stroke-width="1" cx="17" cy="4" r="4.5"></circle>
                </g>
            </g>
        </g>
    </g>
</svg>