<?xml version="1.0" encoding="UTF-8"?>
<svg width="20px" height="20px" viewBox="0 0 20 20" version="1.1" xmlns="http://www.w3.org/2000/svg" xmlns:xlink="http://www.w3.org/1999/xlink">
    <!-- Generator: Sketch 46.2 (44496) - http://www.bohemiancoding.com/sketch -->
    <title>btn-add-small</title>
    <desc>Created with Sketch.</desc>
    <defs></defs>
    <g id="Symbols" stroke="none" stroke-width="1" fill="none" fill-rule="evenodd">
        <g id="btn-add-small">
            <g id="Group">
                <circle id="Oval-4" fill="#53D98B" cx="10" cy="10" r="10"></circle>
                <path d="M14.0628908,9.68746994 L10.3125301,9.68746994 L10.3125301,5.93710919 C10.3125301,5.76453009 10.1725791,5.62457912 10,5.62457912 C9.8274209,5.62457912 9.68746994,5.76453009 9.68746994,5.93710919 L9.68746994,9.68746994 L5.93710919,9.68746994 C5.76453009,9.68746994 5.62457912,9.8274209 5.62457912,10 C5.62457912,10.1725791 5.76453009,10.3125301 5.93710919,10.3125301 L9.68746994,10.3125301 L9.68746994,14.0628908 C9.68746994,14.2354699 9.8274209,14.3754209 10,14.3754209 C10.1725791,14.3754209 10.3125301,14.2354699 10.3125301,14.0628908 L10.3125301,10.3125301 L14.0628908,10.3125301 C14.2354699,10.3125301 14.3754209,10.1725791 14.3754209,10 C14.3754209,9.8274209 14.2354699,9.68746994 14.0628908,9.68746994 Z" id="Shape" stroke="#FFFFFF" stroke-width="0.6" fill="#FFFFFF" fill-rule="nonzero"></path>
            </g>
        </g>
    </g>
</svg>