<?xml version="1.0" encoding="UTF-8"?>
<svg width="45px" height="45px" viewBox="0 0 45 45" version="1.1" xmlns="http://www.w3.org/2000/svg" xmlns:xlink="http://www.w3.org/1999/xlink">
    <!-- Generator: Sketch 44.1 (41455) - http://www.bohemiancoding.com/sketch -->
    <title>btn-edit</title>
    <desc>Created with Sketch.</desc>
    <defs></defs>
    <g id="Symbols" stroke="none" stroke-width="1" fill="none" fill-rule="evenodd">
        <g id="btn-edit">
            <g id="Group-11" transform="translate(0.000000, 0.500000)">
                <circle id="Oval" stroke="#E7E7E7" cx="22" cy="22" r="22"></circle>
                <path d="M9.46492271,13.5077289 L4.82758621,8.87039239 C4.68489893,8.7039239 4.58977408,8.5136742 4.58977408,8.27586207 C4.58977408,8.03804994 4.66111772,7.84780024 4.82758621,7.68133175 C5.13674197,7.37217598 5.68370987,7.37217598 5.99286564,7.68133175 L9.15576694,10.8442331 L9.15576694,0.832342449 C9.15576694,0.380499405 9.53626635,0 9.98810939,0 C10.4399524,0 10.8204518,0.380499405 10.8204518,0.832342449 L10.8204518,10.8442331 L13.9595719,7.63376932 C14.2687277,7.32461356 14.8156956,7.32461356 15.1248514,7.63376932 C15.2675386,7.80023781 15.3626635,7.99048751 15.3626635,8.22829964 C15.3626635,8.46611177 15.2913199,8.65636147 15.1248514,8.82282996 L10.5350773,13.412604 L10.4637337,13.4839477 C10.4161712,13.5315101 10.3448276,13.5790725 10.2734839,13.6028537 C10.2259215,13.626635 10.1545779,13.6504162 10.1070155,13.6504162 L10.1070155,13.6741974 L9.94054697,13.6741974 L9.91676576,13.6741974 C9.8216409,13.6504162 9.75029727,13.626635 9.65517241,13.6028537 C9.58382878,13.5790725 9.53626635,13.5552913 9.46492271,13.5077289 Z M19.1438763,10.8680143 C19.6195006,10.8680143 19.9762188,11.2485137 20,11.7003567 L20,15.0059453 C20,17.431629 18.0261593,19.4054697 15.6004756,19.4054697 L4.39952438,19.4054697 C1.97384067,19.4054697 0,17.431629 0,15.0059453 L0,11.7003567 C0,11.2485137 0.380499405,10.8680143 0.832342449,10.8680143 C1.28418549,10.8680143 1.6646849,11.2485137 1.6646849,11.7003567 L1.6646849,15.0059453 C1.6646849,16.5041617 2.90130797,17.7407848 4.39952438,17.7407848 L15.5766944,17.7407848 C17.0749108,17.7407848 18.3115339,16.5041617 18.3115339,15.0059453 L18.3115339,11.7003567 C18.3115339,11.2485137 18.6920333,10.8680143 19.1438763,10.8680143 Z" id="Combined-Shape"></path>
            </g>
        </g>
    </g>
</svg>