<?xml version="1.0" encoding="UTF-8"?>
<svg width="46px" height="45px" viewBox="0 0 45 45" version="1.1" xmlns="http://www.w3.org/2000/svg" xmlns:xlink="http://www.w3.org/1999/xlink">
    <!-- Generator: Sketch 44.1 (41455) - http://www.bohemiancoding.com/sketch -->
    <title>btn-edit-a</title>
    <desc>Created with Sketch.</desc>
    <defs></defs>
    <g id="Symbols" stroke="none" stroke-width="1" fill="none" fill-rule="evenodd">
        <g id="btn-edit-a" fill="#53D98B">
            <g id="Group-11-Copy">
                <circle id="Oval" stroke="#53D98B" cx="22" cy="22" r="22"></circle>
                <path d="M28.8453664,20.4635955 L26.4114583,18.0296875 C26.1072198,17.725449 25.7117098,17.5733297 25.3466236,17.5733297 C24.9815374,17.5733297 24.5556034,17.725449 24.2817888,18.0296875 L18.7142241,23.5668283 C18.4404095,23.840643 18.2578664,24.236153 18.2578664,24.6316631 L18.2578664,27.095995 C18.2578664,27.491505 18.4099856,27.8870151 18.7142241,28.1608297 C18.9880388,28.4346444 19.3835489,28.6171875 19.7790589,28.6171875 L19.7790589,28.6171875 L22.2433908,28.6171875 C22.6389009,28.6171875 23.0344109,28.4650682 23.3082256,28.1608297 L28.8453664,22.6236889 C29.119181,22.3498743 29.3017241,21.9543642 29.3017241,21.5588542 C29.3017241,21.1633441 29.119181,20.7678341 28.8453664,20.4635955 Z M15.4588721,16.904005 L22,16.904005 C22.4259339,16.904005 22.7605963,16.5693427 22.7605963,16.1434088 C22.7605963,15.7174749 22.4259339,15.3828125 22,15.3828125 L15.4588721,15.3828125 C15.0329382,15.3828125 14.6982759,15.7174749 14.6982759,16.1434088 C14.6982759,16.5693427 15.0329382,16.904005 15.4588721,16.904005 Z M15.4588721,19.9463901 L19.8703305,19.9463901 C20.2962644,19.9463901 20.6309267,19.6117277 20.6309267,19.1857938 C20.6309267,18.7598599 20.2962644,18.4251976 19.8703305,18.4251976 L15.4588721,18.4251976 C15.0329382,18.4251976 14.6982759,18.7598599 14.6982759,19.1857938 C14.6982759,19.6117277 15.0329382,19.9463901 15.4588721,19.9463901 Z M17.1321839,21.4675826 L15.4588721,21.4675826 C15.0329382,21.4675826 14.6982759,21.802245 14.6982759,22.2281789 C14.6982759,22.6541128 15.0329382,22.9887751 15.4588721,22.9887751 L17.1321839,22.9887751 C17.5581178,22.9887751 17.8927802,22.6541128 17.8927802,22.2281789 C17.8927802,21.802245 17.5581178,21.4675826 17.1321839,21.4675826 Z" id="Shape-Copy-3" stroke="#FFFFFF" stroke-width="0.5" fill-rule="nonzero"></path>
            </g>
        </g>
    </g>
</svg>