<?xml version="1.0" encoding="UTF-8"?>
<svg width="202px" height="51px" viewBox="0 0 202 51" version="1.1" xmlns="http://www.w3.org/2000/svg" xmlns:xlink="http://www.w3.org/1999/xlink">
    <!-- Generator: Sketch 44.1 (41455) - http://www.bohemiancoding.com/sketch -->
    <title>btn-get-directions</title>
    <desc>Created with Sketch.</desc>
    <defs></defs>
    <g id="Symbols" stroke="none" stroke-width="1" fill="none" fill-rule="evenodd">
        <g id="btn-get-directions">
            <g id="Rectangle-104-+-Text-+-Imported-Layers-Copy">
                <rect id="Rectangle-104" fill="#53D98B" x="0" y="0" width="202" height="51" rx="5"></rect>
                <g id="icon-location" transform="translate(13.000000, 15.000000)" fill="#FFFFFF">
                    <g transform="translate(0.590909, 0.523810)">
                        <path d="M20,10.0005556 C20,4.47802656 15.5228624,7.10542736e-15 9.99944441,7.10542736e-15 C4.47691538,7.10542736e-15 0,4.47802656 0,10.0005556 C0,15.5250847 4.47713762,20.0011112 9.99944441,20.0011112 C15.5230846,20.0011112 20,15.525307 20,10.0005556 Z M2.4769359,11.3264017 L4.70072222,11.3264017 C5.43253419,11.3264017 6.02524359,10.7336923 6.02524359,10.0005556 C6.02524359,9.27006841 5.43253419,8.67444448 4.70072222,8.67444448 L2.47720085,8.67444448 C3.02963675,5.51827354 5.51811538,3.03032482 8.67455128,2.47815388 L8.67455128,4.7019402 C8.67455128,5.43507695 9.26752564,6.02778636 9.99933761,6.02778636 C10.7311496,6.02778636 11.323859,5.43507695 11.323859,4.7019402 L11.323859,2.47841883 C14.4805598,3.03032482 16.9698333,5.51827354 17.5227991,8.67470943 L15.297953,8.67470943 C14.5677308,8.67470943 13.9734316,9.27033336 13.9734316,10.0008205 C13.9734316,10.7339573 14.5677308,11.3266667 15.297953,11.3266667 L17.5227991,11.3266667 C16.9700983,14.4833676 14.4810897,16.973171 11.323859,17.5256069 L11.323859,15.2997009 C11.323859,14.5692137 10.7311496,13.9765043 9.99933761,13.9765043 C9.26752564,13.9765043 8.67455128,14.5692137 8.67455128,15.2997009 L8.67455128,17.5256069 C5.51811538,16.972906 3.02963675,14.4831026 2.4769359,11.3264017 Z" id="Shape" stroke="#53D98B" fill-rule="nonzero"></path>
                        <circle id="bg-copy-3" cx="10" cy="9.99986772" r="1.9047619"></circle>
                    </g>
                </g>
                <text id="Get-Directions" font-family="AvenirNext-DemiBold, Avenir Next" font-size="16" font-weight="500" fill="#FFFFFF">
                    <tspan x="62.388" y="31">Get Directions</tspan>
                </text>
            </g>
        </g>
    </g>
</svg>