<?xml version="1.0" encoding="UTF-8"?>
<svg width="180px" height="44px" viewBox="0 0 180 44" version="1.1" xmlns="http://www.w3.org/2000/svg" xmlns:xlink="http://www.w3.org/1999/xlink">
    <!-- Generator: Sketch 44.1 (41455) - http://www.bohemiancoding.com/sketch -->
    <title>cta-add-money</title>
    <desc>Created with Sketch.</desc>
    <defs>
        <style type="text/css">
            @font-face {
            font-family: AvenirNext-DemiBold;
            src: url('../fonts/Avenir Next Bold.otf');
            }
        </style>
    </defs>
    <g id="Symbols" stroke="none" stroke-width="1" fill="none" fill-rule="evenodd">
        <g id="cta-add-money">
            <g id="cta">
                <g id="btn-copy-2">
                    <rect id="Rectangle-28" fill="#53D98B" x="0" y="0" width="180" height="44" rx="22"></rect>
                    <g id="plus" transform="translate(10.000000, 11.000000)">
                        <g id="icon-add">
                            <g>
                                <g id="Group">
                                    <path d="M11,0 C4.93464074,0 0,4.93464074 0,11 C0,17.0653593 4.93464074,22 11,22 C17.0653593,22 22,17.0653593 22,11 C22,4.93464074 17.0653593,0 11,0 Z" id="Shape" fill="#FFFFFF" fill-rule="nonzero"></path>
                                    <path d="M14.5767196,10.7248677 L11.2751323,10.7248677 L11.2751323,7.42328042 C11.2751323,7.27135238 11.151928,7.14814815 11,7.14814815 C10.848072,7.14814815 10.7248677,7.27135238 10.7248677,7.42328042 L10.7248677,10.7248677 L7.42328042,10.7248677 C7.27135238,10.7248677 7.14814815,10.848072 7.14814815,11 C7.14814815,11.151928 7.27135238,11.2751323 7.42328042,11.2751323 L10.7248677,11.2751323 L10.7248677,14.5767196 C10.7248677,14.7286476 10.848072,14.8518519 11,14.8518519 C11.151928,14.8518519 11.2751323,14.7286476 11.2751323,14.5767196 L11.2751323,11.2751323 L14.5767196,11.2751323 C14.7286476,11.2751323 14.8518519,11.151928 14.8518519,11 C14.8518519,10.848072 14.7286476,10.7248677 14.5767196,10.7248677 Z" id="Shape" stroke="#53D98B" fill="#53D98B" fill-rule="nonzero"></path>
                                </g>
                            </g>
                        </g>
                    </g>
                    <text id="ADD-MONEY" font-family="AvenirNext-DemiBold" font-size="10" font-weight="bold" letter-spacing="1.41666675" fill="#FBFBFB">
                        <tspan x="40" y="26">NEW CLASSIFICATION</tspan>
                    </text>
                </g>
            </g>
        </g>
    </g>
</svg>